<?xml version="1.0" standalone="no"?>
<!DOCTYPE svg PUBLIC "-//W3C//DTD SVG 20010904//EN"
 "http://www.w3.org/TR/2001/REC-SVG-20010904/DTD/svg10.dtd">
<svg version="1.0" xmlns="http://www.w3.org/2000/svg"
 width="591.000000pt" height="402.000000pt" viewBox="0 0 591.000000 402.000000"
 preserveAspectRatio="xMidYMid meet">

<g transform="translate(0.000000,402.000000) scale(0.100000,-0.100000)"
fill="#000000" stroke="none">
<path d="M2685 3591 c-38 -24 -969 -959 -984 -988 -14 -28 -4 -53 22 -53 15 0
176 155 512 490 l490 490 163 0 162 0 0 40 0 40 -167 0 c-148 0 -172 -2 -198
-19z"/>
<path d="M2775 3225 c-430 -430 -625 -630 -625 -642 0 -14 28 -43 42 -43 9 0
185 178 701 706 156 160 159 164 155 212 l-3 37 -270 -270z"/>
<path d="M2975 3084 c-95 -83 -464 -461 -477 -490 -12 -25 3 -54 27 -54 7 0
46 35 86 77 173 182 314 323 322 323 5 0 32 -20 60 -45 l52 -45 3 41 c3 36 -1
47 -29 75 l-32 33 32 29 c28 26 32 34 29 73 l-3 43 -70 -60z"/>
<path d="M2941 2473 c-43 -49 -49 -59 -37 -71 11 -12 23 -7 75 33 47 36 61 53
59 69 -6 42 -42 31 -97 -31z"/>
<path d="M600 2345 c-72 -33 -110 -87 -110 -159 0 -81 60 -128 211 -166 107
-27 133 -46 132 -94 -1 -20 -7 -44 -14 -52 -46 -56 -169 -59 -263 -5 -31 17
-58 31 -60 31 -3 0 -10 -9 -16 -21 -9 -17 -8 -25 7 -41 71 -79 263 -96 355
-32 48 34 68 70 68 124 0 79 -45 117 -186 155 -143 40 -177 71 -153 142 15 45
56 66 136 66 54 0 72 -5 114 -32 57 -35 62 -36 78 -17 18 22 -1 51 -56 83 -58
34 -186 43 -243 18z"/>
<path d="M1910 2340 c-7 -12 -9 -114 -8 -286 3 -242 5 -268 21 -278 12 -8 22
-8 35 0 15 10 17 36 20 278 2 276 -1 306 -38 306 -11 0 -24 -9 -30 -20z"/>
<path d="M2682 2348 c-7 -7 -12 -18 -12 -24 0 -7 47 -72 104 -144 l105 -132 0
-130 c1 -71 3 -134 7 -139 8 -13 38 -11 52 3 8 8 12 55 12 142 l1 131 104 130
c58 72 105 133 105 136 0 16 -29 41 -42 36 -12 -4 -101 -112 -194 -235 -8 -12
-30 10 -109 112 -53 69 -103 126 -109 126 -7 0 -17 -5 -24 -12z"/>
<path d="M4332 2348 c-9 -9 -12 -86 -12 -283 0 -255 1 -273 19 -289 18 -17 20
-17 40 3 20 20 21 31 21 275 0 141 -4 266 -10 280 -10 28 -38 34 -58 14z"/>
<path d="M3220 2335 c-16 -19 -9 -45 16 -62 19 -12 24 -11 45 6 21 16 22 22
11 45 -13 29 -52 36 -72 11z"/>
<path d="M3360 2335 c-16 -19 -9 -45 16 -62 19 -12 24 -11 45 6 21 16 22 22
11 45 -13 29 -52 36 -72 11z"/>
<path d="M1112 2179 c-59 -11 -106 -40 -110 -67 -5 -32 18 -36 72 -12 99 42
176 18 176 -55 0 -34 -1 -35 -37 -36 -113 -1 -188 -26 -211 -69 -16 -32 -9
-96 15 -122 50 -56 149 -68 200 -24 l27 24 11 -22 c12 -23 42 -33 56 -19 5 5
9 76 10 157 0 125 -3 152 -18 179 -34 57 -108 83 -191 66z m138 -245 c0 -32
-16 -64 -44 -86 -27 -23 -94 -23 -118 -1 -21 18 -25 78 -6 89 17 11 76 22 126
23 39 1 42 -1 42 -25z"/>
<path d="M1601 2180 c-18 -5 -46 -17 -61 -29 l-29 -21 -3 23 c-2 17 -10 22
-33 22 l-30 0 0 -200 0 -200 30 0 30 0 5 135 c6 139 13 167 52 194 33 23 103
21 128 -4 21 -21 22 -28 20 -180 -1 -119 9 -153 48 -148 l27 3 3 143 c2 124 0
149 -17 187 -27 62 -94 91 -170 75z"/>
<path d="M3770 2178 c-19 -5 -47 -21 -62 -35 l-26 -25 -4 28 c-2 20 -9 30 -24
32 -41 6 -45 -15 -42 -214 l3 -189 30 0 30 0 5 130 c7 167 22 197 105 211 63
10 79 29 49 58 -17 18 -16 18 -64 4z"/>
<path d="M4021 2178 c-56 -10 -85 -29 -118 -80 -38 -56 -45 -166 -15 -224 40
-77 87 -104 183 -104 66 0 114 16 143 49 18 20 18 23 4 37 -14 14 -19 14 -56
-5 -27 -14 -60 -21 -96 -21 -48 0 -58 4 -85 31 -18 17 -31 41 -31 55 0 13 -1
27 -2 32 -2 4 60 9 137 12 l140 5 3 30 c2 16 -2 48 -8 70 -26 87 -102 131
-199 113z m87 -63 c24 -7 52 -52 52 -85 0 -19 -6 -20 -105 -20 -104 0 -105 0
-105 24 0 33 35 74 73 85 32 9 41 9 85 -4z"/>
<path d="M4627 2180 c-48 -9 -110 -68 -126 -119 -27 -93 -1 -198 61 -242 64
-46 164 -44 216 4 l22 20 0 -49 c-1 -103 -81 -140 -202 -94 -65 24 -74 25 -83
3 -8 -23 32 -58 83 -72 105 -30 217 1 257 69 18 31 20 56 23 246 4 211 4 212
-19 228 -21 14 -24 14 -41 -1 -10 -9 -18 -22 -18 -29 0 -9 -12 -5 -36 11 -20
14 -45 25 -55 25 -9 0 -23 2 -31 4 -7 2 -30 0 -51 -4z m122 -76 c29 -21 51
-72 51 -119 0 -47 -22 -98 -51 -119 -30 -20 -102 -21 -133 -1 -67 44 -66 196
2 238 35 21 101 22 131 1z"/>
<path d="M5107 2176 c-26 -7 -59 -23 -72 -36 -108 -101 -76 -318 53 -361 55
-18 137 -13 186 11 46 22 59 40 50 65 -8 20 -17 19 -64 -5 -25 -13 -59 -20
-93 -20 -76 0 -106 29 -121 117 0 5 62 10 139 13 l140 5 3 35 c2 19 -1 51 -7
71 -12 40 -81 109 -109 109 -9 0 -26 2 -37 5 -11 2 -42 -2 -68 -9z m120 -66
c7 0 33 -62 33 -80 0 -19 -6 -20 -105 -20 -93 0 -105 2 -105 18 0 31 38 81 67
88 15 3 33 7 38 8 6 2 23 -1 40 -6 16 -4 31 -8 32 -8z"/>
<path d="M2051 2166 c-9 -10 7 -54 73 -196 l84 -182 -31 -69 c-28 -66 -29 -71
-14 -87 13 -12 22 -14 34 -6 9 6 70 126 136 268 106 229 118 260 104 273 -31
31 -51 7 -116 -140 -35 -78 -66 -145 -70 -150 -4 -4 -33 52 -65 125 -32 73
-64 143 -72 156 -16 25 -46 29 -63 8z"/>
<path d="M3235 2164 c-68 -35 -112 -129 -101 -218 12 -109 86 -177 189 -177
63 0 88 10 135 55 90 85 72 270 -32 331 -50 29 -142 33 -191 9z m159 -63 c60
-51 62 -186 4 -248 -17 -18 -32 -23 -73 -23 -41 0 -56 5 -72 23 -34 37 -43 63
-43 122 0 105 53 160 140 146 14 -2 33 -11 44 -20z"/>
<path d="M3130 1179 l-195 -202 -55 46 -55 46 -3 -36 c-3 -27 3 -42 22 -62 33
-34 33 -48 0 -82 -20 -21 -25 -35 -22 -63 l3 -37 65 54 c36 30 159 149 273
266 177 182 208 217 205 240 -7 59 -36 38 -238 -170z"/>
<path d="M3459 1173 c-264 -268 -510 -522 -583 -600 -52 -55 -57 -65 -54 -100
l3 -38 290 290 c539 539 597 601 593 627 -2 14 -11 24 -24 26 -16 2 -71 -48
-225 -205z"/>
<path d="M3634 880 l-490 -490 -162 0 -162 0 0 -35 0 -35 178 0 177 0 498 498
c409 410 497 503 497 525 0 67 -33 38 -536 -463z"/>
</g>
</svg>
