<?xml version="1.0" standalone="no"?>
<!DOCTYPE svg PUBLIC "-//W3C//DTD SVG 20010904//EN"
 "http://www.w3.org/TR/2001/REC-SVG-20010904/DTD/svg10.dtd">
<svg version="1.0" xmlns="http://www.w3.org/2000/svg"
 width="497.000000pt" height="280.000000pt" viewBox="0 0 497.000000 280.000000"
 preserveAspectRatio="xMidYMid meet">

<g transform="translate(0.000000,280.000000) scale(0.100000,-0.100000)"
fill="#000000" stroke="none">
<path d="M2065 2298 c-285 -289 -410 -420 -425 -448 -18 -35 144 118 410 384
l225 226 92 0 c93 0 123 5 123 21 0 5 -53 9 -118 9 l-117 0 -190 -192z"/>
<path d="M2445 1740 c-16 -16 -24 -30 -18 -30 14 0 63 39 63 51 0 17 -16 9
-45 -21z"/>
<path d="M1757 1664 c-4 -4 -7 -19 -6 -33 0 -14 3 -19 6 -11 15 46 15 46 24
25 8 -19 9 -19 6 -1 -2 21 -19 31 -30 20z"/>
<path d="M2633 1663 c-7 -2 -13 -11 -13 -18 0 -17 36 -38 50 -30 13 8 13 32 1
39 -5 4 -7 -3 -4 -14 6 -21 -3 -25 -26 -11 -12 8 -12 12 -2 25 14 17 14 17 -6
9z"/>
<path d="M2719 1654 c-11 -14 -10 -18 6 -30 22 -17 32 -17 40 -4 3 5 0 7 -8 4
-18 -6 -43 21 -27 31 6 4 19 1 28 -7 15 -12 16 -11 3 5 -17 21 -25 21 -42 1z"/>
<path d="M3372 1658 c-7 -7 -11 -28 -11 -47 2 -34 2 -34 6 -6 2 17 6 37 9 45
4 13 6 13 14 0 6 -9 10 -10 10 -3 0 18 -15 24 -28 11z"/>
<path d="M900 1639 c-45 -18 -60 -40 -60 -84 0 -52 14 -65 105 -98 45 -16 77
-34 90 -51 18 -25 18 -29 4 -54 -21 -38 -58 -48 -122 -35 -28 6 -61 15 -72 19
-18 7 -18 6 -6 -9 19 -24 87 -40 139 -32 78 12 116 77 77 132 -8 12 -39 29
-68 39 -119 39 -150 69 -124 123 7 14 28 31 49 39 38 15 64 10 141 -23 10 -4
17 -3 17 4 0 31 -116 51 -170 30z"/>
<path d="M3402 1483 c-1 -83 -5 -158 -8 -167 -11 -29 -23 -17 -27 27 l-4 42 1
-45 c1 -34 5 -46 18 -48 24 -5 30 38 26 203 l-4 140 -2 -152z"/>
<path d="M1794 1480 c0 -74 1 -105 3 -67 2 37 2 97 0 135 -2 37 -3 6 -3 -68z"/>
<path d="M1744 1480 c0 -63 1 -89 3 -57 2 31 2 83 0 115 -2 31 -3 5 -3 -58z"/>
<path d="M2290 1564 c0 -4 20 -34 45 -65 61 -78 75 -115 75 -201 0 -51 3 -68
10 -58 5 8 10 41 10 72 0 73 10 97 69 172 26 34 51 68 56 76 15 27 -45 -33
-87 -87 -22 -29 -43 -53 -47 -53 -3 1 -28 30 -56 66 -52 68 -75 92 -75 78z"/>
<path d="M1188 1544 c-71 -30 -54 -64 22 -44 69 18 133 -20 83 -49 -10 -6 -13
-11 -7 -11 14 0 34 21 34 37 0 7 -14 20 -31 29 -26 13 -39 14 -75 5 -60 -15
-69 -15 -54 4 22 26 83 39 123 26 56 -19 68 -39 77 -138 l9 -88 -4 88 c-3 97
-14 119 -72 143 -40 17 -58 17 -105 -2z"/>
<path d="M1454 1545 c-3 -8 -4 -20 -1 -27 4 -8 6 -6 6 5 1 20 12 22 29 5 8 -8
15 -8 24 -1 7 6 27 15 43 21 17 6 23 11 15 11 -8 1 -28 -6 -43 -14 -25 -13
-30 -13 -44 0 -18 19 -22 19 -29 0z"/>
<path d="M2074 1543 c-10 -10 -35 -56 -57 -101 l-39 -84 -46 94 c-29 57 -54
94 -64 96 -20 4 -24 -23 -8 -48 8 -11 9 -8 4 13 -4 18 -2 27 6 27 6 0 33 -46
60 -102 l48 -103 41 90 c47 101 70 133 83 113 5 -9 8 -10 8 -1 0 21 -18 24
-36 6z"/>
<path d="M2903 1553 c-7 -3 -13 -12 -13 -21 1 -15 2 -15 11 1 10 17 12 17 28
3 16 -15 21 -15 50 0 24 12 36 13 44 5 8 -8 0 -15 -26 -26 -46 -19 -67 -59
-66 -122 l2 -48 7 55 c9 75 16 86 61 104 40 16 51 39 23 50 -9 3 -30 -1 -47
-9 -26 -13 -33 -13 -46 -1 -9 7 -22 11 -28 9z"/>
<path d="M3863 1545 c-34 -15 -64 -60 -62 -97 1 -19 2 -18 8 7 14 56 30 74 79
89 26 8 38 15 27 15 -11 0 -34 -6 -52 -14z"/>
<path d="M1600 1543 c8 -3 23 -12 33 -21 10 -9 17 -11 17 -4 0 13 -32 32 -52
31 -9 0 -8 -2 2 -6z"/>
<path d="M2668 1543 c6 -2 18 -2 25 0 6 3 1 5 -13 5 -14 0 -19 -2 -12 -5z"/>
<path d="M3111 1534 c-13 -9 -29 -32 -37 -50 -43 -103 20 -206 123 -203 l38 2
-45 6 c-25 4 -55 12 -67 19 -74 41 -68 193 9 227 18 8 26 14 18 15 -9 0 -26
-7 -39 -16z"/>
<path d="M3228 1535 c20 -9 38 -27 47 -47 9 -21 14 -26 15 -15 0 24 -53 77
-77 77 -11 -1 -6 -6 15 -15z"/>
<path d="M3632 1543 l87 -4 4 -67 3 -67 2 73 2 72 -92 -2 -93 -2 87 -3z"/>
<path d="M3967 1530 c17 -10 39 -32 47 -47 8 -15 15 -22 16 -14 0 17 -64 81
-81 81 -8 0 0 -9 18 -20z"/>
<path d="M2618 1529 c-10 -5 -23 -20 -28 -32 -9 -19 -9 -20 2 -7 7 9 24 24 38
33 26 18 17 23 -12 6z"/>
<path d="M2737 1520 c33 -20 62 -65 64 -97 0 -11 3 -13 6 -5 12 31 -55 122
-90 122 -7 0 2 -9 20 -20z"/>
<path d="M3501 1514 c-12 -15 -21 -32 -21 -38 0 -6 9 3 19 20 11 18 25 34 33
37 8 3 9 6 1 6 -6 1 -21 -11 -32 -25z"/>
<path d="M1565 1513 c34 -9 39 -21 46 -106 l6 -82 1 70 c2 82 -13 119 -48 122
-19 1 -20 0 -5 -4z"/>
<path d="M2085 1498 c-17 -54 -147 -308 -156 -303 -5 4 -9 1 -9 -4 0 -24 21
-9 45 33 38 64 138 286 132 292 -3 3 -8 -5 -12 -18z"/>
<path d="M3127 1489 c-21 -17 -36 -34 -33 -37 3 -2 24 12 46 32 49 44 39 48
-13 5z"/>
<path d="M3226 1485 c20 -19 39 -35 42 -35 3 0 -9 16 -28 35 -19 19 -38 35
-43 35 -4 0 8 -16 29 -35z"/>
<path d="M3883 1508 c-12 -6 -25 -18 -28 -26 -5 -14 -4 -14 12 1 10 9 30 20
43 26 14 5 18 10 10 10 -8 0 -25 -5 -37 -11z"/>
<path d="M1510 1495 c-19 -22 -8 -25 13 -3 9 10 13 18 8 18 -5 0 -14 -7 -21
-15z"/>
<path d="M2637 1482 c-64 -66 -29 -172 56 -172 27 0 72 42 64 62 -4 9 -6 8 -6
-3 -1 -22 -33 -49 -58 -49 -35 0 -53 11 -69 42 -22 42 -11 90 27 122 17 14 27
26 22 26 -5 0 -21 -13 -36 -28z"/>
<path d="M2712 1493 c15 -9 31 -26 37 -37 5 -12 10 -15 10 -8 1 15 -47 62 -63
62 -6 0 1 -8 16 -17z"/>
<path d="M2884 1415 c0 -55 1 -76 3 -47 2 29 2 74 0 100 -2 26 -3 2 -3 -53z"/>
<path d="M3352 1480 c0 -19 2 -27 5 -17 2 9 2 25 0 35 -3 9 -5 1 -5 -18z"/>
<path d="M3546 1494 c-24 -24 -19 -30 7 -8 12 10 24 20 26 21 2 2 -1 3 -7 3
-6 0 -18 -7 -26 -16z"/>
<path d="M3617 1500 c47 -19 61 -116 21 -144 -48 -34 -97 -4 -108 65 l-7 44
-2 -38 c-1 -30 5 -45 28 -68 35 -34 59 -36 95 -8 21 16 26 29 26 63 0 48 -30
96 -58 95 -13 0 -11 -3 5 -9z"/>
<path d="M3961 1489 c30 -30 12 -42 -54 -37 -30 1 -53 0 -50 -4 5 -9 95 -11
117 -2 21 8 20 27 -2 47 -27 24 -36 21 -11 -4z"/>
<path d="M1652 1480 c0 -14 2 -19 5 -12 2 6 2 18 0 25 -3 6 -5 1 -5 -13z"/>
<path d="M1443 1415 c0 -44 2 -61 4 -37 2 23 2 59 0 80 -2 20 -4 1 -4 -43z"/>
<path d="M1871 1475 c0 -5 6 -21 14 -35 8 -14 14 -20 14 -15 0 6 -6 21 -14 35
-8 14 -14 21 -14 15z"/>
<path d="M1493 1390 c0 -41 2 -58 4 -37 2 20 2 54 0 75 -2 20 -4 3 -4 -38z"/>
<path d="M3473 1425 c0 -22 2 -30 4 -17 2 12 2 30 0 40 -3 9 -5 -1 -4 -23z"/>
<path d="M1663 1395 c0 -33 2 -45 4 -27 2 18 2 45 0 60 -2 15 -4 0 -4 -33z"/>
<path d="M3148 1443 c17 -2 47 -2 65 0 17 2 3 4 -33 4 -36 0 -50 -2 -32 -4z"/>
<path d="M4027 1435 c-5 -12 -23 -15 -80 -15 -48 0 -80 -5 -93 -14 -17 -14
-18 -17 -4 -42 8 -15 21 -29 29 -32 7 -2 4 5 -8 17 -45 45 -24 61 79 61 48 0
71 4 80 15 7 9 11 18 8 21 -3 3 -8 -2 -11 -11z"/>
<path d="M1190 1422 c-20 -9 -36 -26 -37 -37 -3 -18 -2 -18 6 1 9 20 38 34 96
47 16 4 15 5 -5 6 -14 0 -41 -7 -60 -17z"/>
<path d="M2561 1412 c-3 -98 86 -165 172 -128 39 16 78 67 76 101 -1 14 -4 10
-10 -10 -38 -133 -205 -117 -228 21 -7 40 -9 43 -10 16z"/>
<path d="M3280 1432 c0 -8 -22 -12 -64 -12 -72 0 -116 -13 -116 -33 0 -24 51
-67 79 -67 14 0 46 7 71 15 25 9 32 13 15 10 -103 -19 -105 -18 -130 5 -47 45
-27 60 82 60 56 0 85 11 69 27 -3 4 -6 1 -6 -5z"/>
<path d="M2762 1410 c0 -14 2 -19 5 -12 2 6 2 18 0 25 -3 6 -5 1 -5 -13z"/>
<path d="M1264 1401 c22 -3 41 -11 43 -17 5 -15 -44 -54 -66 -54 -34 0 -57 52
-28 63 9 4 9 6 0 6 -35 3 -25 -66 11 -75 28 -7 81 18 90 42 10 26 -13 44 -53
43 l-36 -2 39 -6z"/>
<path d="M1905 1395 c4 -11 14 -40 22 -63 12 -34 13 -49 4 -68 -6 -14 -11 -33
-11 -42 1 -9 8 2 16 26 14 39 14 48 -1 90 -8 26 -20 54 -26 62 -9 12 -10 11
-4 -5z"/>
<path d="M3801 1382 c-2 -45 54 -110 76 -88 4 3 0 6 -9 6 -22 0 -49 34 -58 72
-6 25 -8 28 -9 10z"/>
<path d="M3480 1372 c0 -8 16 -30 35 -49 34 -34 38 -35 83 -29 26 4 53 7 60 8
6 1 12 6 12 11 0 5 -8 6 -17 2 -36 -14 -91 -17 -112 -5 -12 6 -31 26 -41 43
-11 18 -20 26 -20 19z"/>
<path d="M3722 1345 c-1 -22 -5 -51 -7 -65 l-6 -25 11 25 c6 13 9 42 7 65 l-4
40 -1 -40z"/>
<path d="M1754 1320 c1 -29 30 -35 32 -7 1 12 1 13 -3 2 -7 -22 -21 -18 -26 8
-3 19 -4 19 -3 -3z"/>
<path d="M3940 1334 c-38 -12 -40 -13 -10 -9 19 3 48 8 64 11 35 8 32 -14 -5
-33 -17 -9 -19 -13 -7 -13 21 0 50 28 45 44 -5 16 -35 16 -87 0z"/>
<path d="M1150 1334 c0 -17 38 -47 52 -41 9 4 7 6 -4 6 -9 1 -24 11 -32 23 -9
12 -16 18 -16 12z"/>
<path d="M1451 1313 c-1 -17 5 -23 19 -23 11 0 20 4 20 10 0 5 -6 7 -14 4 -8
-3 -16 2 -19 13 -4 14 -5 14 -6 -4z"/>
<path d="M1650 1317 c0 -20 -16 -23 -23 -4 -3 7 -6 5 -6 -5 -1 -10 6 -18 14
-18 17 0 32 27 21 37 -3 4 -6 -1 -6 -10z"/>
<path d="M2920 1316 c0 -12 -5 -16 -15 -12 -8 3 -15 1 -15 -4 0 -6 7 -10 15
-10 17 0 32 27 21 37 -3 4 -6 -2 -6 -11z"/>
<path d="M3261 1309 c-13 -10 -19 -19 -14 -19 13 0 49 27 43 33 -3 3 -16 -3
-29 -14z"/>
<path d="M1340 1300 c-13 -8 -12 -10 3 -10 9 0 17 5 17 10 0 12 -1 12 -20 0z"/>
<path d="M1228 1283 c6 -2 18 -2 25 0 6 3 1 5 -13 5 -14 0 -19 -2 -12 -5z"/>
<path d="M3908 1283 c12 -2 30 -2 40 0 9 3 -1 5 -23 4 -22 0 -30 -2 -17 -4z"/>
<path d="M3652 1259 c-13 -20 -19 -21 -88 -15 -62 6 -74 4 -74 -8 0 -22 38
-44 87 -52 53 -8 87 0 113 28 31 34 24 40 -9 7 -23 -22 -38 -29 -68 -28 -47 0
-105 20 -111 37 -3 9 12 11 65 6 70 -6 111 8 102 34 -2 7 -10 3 -17 -9z"/>
<path d="M3129 855 c-52 -46 -197 -190 -322 -320 l-229 -235 -81 0 c-45 0 -89
-5 -97 -10 -10 -7 21 -10 96 -10 l111 0 278 288 c347 358 350 360 343 367 -3
3 -47 -33 -99 -80z"/>
</g>
</svg>
