<?xml version="1.0" encoding="UTF-8" standalone="no" ?>
<!DOCTYPE svg PUBLIC "-//W3C//DTD SVG 1.1//EN" "http://www.w3.org/Graphics/SVG/1.1/DTD/svg11.dtd">
<svg xmlns="http://www.w3.org/2000/svg" xmlns:xlink="http://www.w3.org/1999/xlink" version="1.1" width="1080" height="1080" viewBox="0 0 1080 1080" xml:space="preserve">
<desc>Created with Fabric.js 5.2.4</desc>
<defs>
</defs>
<g transform="matrix(1 0 0 1 540 540)" id="572cc204-0732-4b35-bdb7-3cbfdbac7f5a"  >
</g>
<g transform="matrix(1 0 0 1 540 540)" id="14b69019-4a0e-44bb-af78-73db79aad146"  >
<rect style="stroke: none; stroke-width: 1; stroke-dasharray: none; stroke-linecap: butt; stroke-dashoffset: 0; stroke-linejoin: miter; stroke-miterlimit: 4; fill: rgb(255,255,255); fill-rule: nonzero; opacity: 1; visibility: hidden;" vector-effect="non-scaling-stroke"  x="-540" y="-540" rx="0" ry="0" width="1080" height="1080" />
</g>
<g transform="matrix(0.13 0 0 -0.13 509.69 476.6)"  >
<path style="stroke: rgb(253,253,253); stroke-width: 1; stroke-dasharray: none; stroke-linecap: butt; stroke-dashoffset: 0; stroke-linejoin: miter; stroke-miterlimit: 4; fill: rgb(12,56,181); fill-rule: nonzero; opacity: 1;" vector-effect="non-scaling-stroke"  transform=" translate(-1005.42, -1310)" d="M 927 1322 C 742 1136 702 1090 728 1090 C 732 1090 827 1182 940 1295 L 1145 1500 L 1217 1500 C 1275 1500 1290 1503 1290 1515 C 1290 1527 1275 1530 1212 1530 L 1134 1530 L 927 1322 z" stroke-linecap="round" />
</g>
<g transform="matrix(0.13 0 0 -0.13 522.69 480.66)"  >
<path style="stroke: rgb(255,255,255); stroke-width: 1; stroke-dasharray: none; stroke-linecap: butt; stroke-dashoffset: 0; stroke-linejoin: miter; stroke-miterlimit: 4; fill: rgb(109,183,7); fill-rule: nonzero; opacity: 1;" vector-effect="non-scaling-stroke"  transform=" translate(-1100.5, -1280.22)" d="M 1097 1295 C 994 1190 911 1101 913 1097 C 914 1092 920 1088 925 1088 C 942 1087 1292 1458 1288 1472 C 1285 1479 1203 1404 1097 1295 z" stroke-linecap="round" />
</g>
<g transform="matrix(0.13 0 0 -0.13 532.5 490.36)"  >
<path style="stroke: rgb(255,255,255); stroke-width: 1; stroke-dasharray: none; stroke-linecap: butt; stroke-dashoffset: 0; stroke-linejoin: miter; stroke-miterlimit: 4; fill: rgb(140,255,4); fill-rule: nonzero; opacity: 1;" vector-effect="non-scaling-stroke"  transform=" translate(-1172.37, -1209.31)" d="M 1161 1216 C 1092 1146 1051 1097 1055 1090 C 1060 1082 1094 1109 1151 1166 L 1239 1254 L 1265 1230 C 1289 1207 1290 1207 1290 1227 C 1290 1238 1283 1253 1275 1260 C 1261 1272 1261 1275 1275 1290 C 1291 1308 1295 1330 1282 1330 C 1278 1330 1223 1279 1161 1216 z" stroke-linecap="round" />
</g>
<g transform="matrix(0.13 0 0 -0.13 543.24 512.12)"  >
<path style="stroke: rgb(0,255,5); stroke-width: 1; stroke-dasharray: none; stroke-linecap: butt; stroke-dashoffset: 0; stroke-linejoin: miter; stroke-miterlimit: 4; fill: rgb(39,148,9); fill-rule: nonzero; opacity: 1;" vector-effect="non-scaling-stroke"  transform=" translate(-1250.69, -1048.45)" d="M 1240 1055 C 1227 1041 1219 1027 1222 1024 C 1230 1017 1280 1049 1280 1061 C 1280 1080 1261 1078 1240 1055 z" stroke-linecap="round" />
</g>
<g transform="matrix(0.13 0 0 -0.13 415.66 534.81)"  >
<path style="stroke: rgb(0,255,5); stroke-width: 2; stroke-dasharray: none; stroke-linecap: butt; stroke-dashoffset: 0; stroke-linejoin: miter; stroke-miterlimit: 4; fill: rgb(39,148,9); fill-rule: nonzero; opacity: 1;" vector-effect="non-scaling-stroke"  transform=" translate(-291.67, -879.54)" d="M 250 993 C 221 978 214 969 212 939 C 208 896 219 885 291 862 C 333 849 346 840 348 823 C 353 786 309 772 252 792 C 198 812 188 808 218 778 C 246 749 329 747 360 775 C 399 810 384 864 332 880 C 252 905 240 912 240 936 C 240 977 292 992 344 965 C 379 947 380 947 380 965 C 380 999 298 1017 250 993 z" stroke-linecap="round" />
</g>
<g transform="matrix(0.13 0 0 -0.13 485.19 534.27)"  >
<path style="stroke: rgb(28,3,253); stroke-width: 1; stroke-dasharray: none; stroke-linecap: butt; stroke-dashoffset: 0; stroke-linejoin: miter; stroke-miterlimit: 4; fill: rgb(255,255,255); fill-rule: nonzero; opacity: 1;" vector-effect="non-scaling-stroke"  transform=" translate(-815, -880)" d="M 800 880 C 800 780 803 760 815 760 C 828 760 830 780 830 880 C 830 980 828 1000 815 1000 C 803 1000 800 980 800 880 z" stroke-linecap="round" />
</g>
<g transform="matrix(0.13 0 0 -0.13 540.5 540.5)"  >
<path style="stroke: rgb(0,255,5); stroke-width: 2; stroke-dasharray: none; stroke-linecap: butt; stroke-dashoffset: 0; stroke-linejoin: miter; stroke-miterlimit: 4; fill: rgb(39,148,9); fill-rule: nonzero; opacity: 1;" vector-effect="non-scaling-stroke"  transform=" translate(-1230, -880.17)" d="M 1130 989 C 1130 983 1148 956 1170 930 C 1207 886 1210 878 1210 821 C 1210 773 1213 760 1225 760 C 1237 760 1240 773 1240 816 C 1240 869 1243 877 1285 928 C 1310 958 1330 986 1330 991 C 1330 1013 1302 995 1267 949 L 1228 900 L 1188 950 C 1149 999 1130 1012 1130 989 z" stroke-linecap="round" />
</g>
<g transform="matrix(0.13 0 0 -0.13 559.37 520.59)"  >
<path style="stroke: rgb(28,3,253); stroke-width: 1; stroke-dasharray: none; stroke-linecap: butt; stroke-dashoffset: 0; stroke-linejoin: miter; stroke-miterlimit: 4; fill: rgb(255,255,255); fill-rule: nonzero; opacity: 1;" vector-effect="non-scaling-stroke"  transform=" translate(-1371.39, -985.24)" d="M 1355 990 C 1352 984 1356 977 1365 974 C 1384 966 1395 974 1385 989 C 1377 1003 1363 1003 1355 990 z" stroke-linecap="round" />
</g>
<g transform="matrix(0.13 0 0 -0.13 567.37 520.59)"  >
<path style="stroke: rgb(28,3,253); stroke-width: 1; stroke-dasharray: none; stroke-linecap: butt; stroke-dashoffset: 0; stroke-linejoin: miter; stroke-miterlimit: 4; fill: rgb(255,255,255); fill-rule: nonzero; opacity: 1;" vector-effect="non-scaling-stroke"  transform=" translate(-1431.39, -985.24)" d="M 1415 990 C 1412 984 1416 977 1425 974 C 1444 966 1455 974 1445 989 C 1437 1003 1423 1003 1415 990 z" stroke-linecap="round" />
</g>
<g transform="matrix(0.13 0 0 -0.13 621.19 534.27)"  >
<path style="stroke: rgb(28,3,253); stroke-width: 1; stroke-dasharray: none; stroke-linecap: butt; stroke-dashoffset: 0; stroke-linejoin: miter; stroke-miterlimit: 4; fill: rgb(255,255,255); fill-rule: nonzero; opacity: 1;" vector-effect="non-scaling-stroke"  transform=" translate(-1835, -880)" d="M 1820 880 C 1820 780 1823 760 1835 760 C 1848 760 1850 780 1850 880 C 1850 980 1848 1000 1835 1000 C 1823 1000 1820 980 1820 880 z" stroke-linecap="round" />
</g>
<g transform="matrix(0.13 0 0 -0.13 441.72 539.11)"  >
<path style="stroke: rgb(28,3,253); stroke-width: 1; stroke-dasharray: none; stroke-linecap: butt; stroke-dashoffset: 0; stroke-linejoin: miter; stroke-miterlimit: 4; fill: rgb(255,255,255); fill-rule: nonzero; opacity: 1;" vector-effect="non-scaling-stroke"  transform=" translate(-490.25, -844.5)" d="M 434 916 C 407 896 423 886 460 899 C 482 906 498 906 511 899 C 542 883 534 861 493 855 C 440 847 425 837 422 808 C 418 777 441 758 477 759 C 493 759 517 760 533 760 C 560 761 560 762 560 825 C 560 877 556 894 540 910 C 516 934 463 937 434 916 z M 527 823 C 533 806 499 779 476 782 C 463 784 454 793 452 807 C 449 824 455 829 477 833 C 513 838 523 836 527 823 z" stroke-linecap="round" />
</g>
<g transform="matrix(0.13 0 0 -0.13 467.08 539.03)"  >
<path style="stroke: rgb(28,3,253); stroke-width: 1; stroke-dasharray: none; stroke-linecap: butt; stroke-dashoffset: 0; stroke-linejoin: miter; stroke-miterlimit: 4; fill: rgb(255,255,255); fill-rule: nonzero; opacity: 1;" vector-effect="non-scaling-stroke"  transform=" translate(-680.5, -845.13)" d="M 610 845 C 610 776 613 760 625 760 C 637 760 640 773 640 818 C 640 880 645 893 674 903 C 707 916 720 892 720 824 C 720 774 723 760 735 760 C 757 760 756 892 734 914 C 716 932 669 935 653 919 C 645 911 640 911 636 919 C 618 947 610 923 610 845 z" stroke-linecap="round" />
</g>
<g transform="matrix(0.13 0 0 -0.13 502.79 543.51)"  >
<path style="stroke: rgb(28,3,253); stroke-width: 1; stroke-dasharray: none; stroke-linecap: butt; stroke-dashoffset: 0; stroke-linejoin: miter; stroke-miterlimit: 4; fill: rgb(255,255,255); fill-rule: nonzero; opacity: 1;" vector-effect="non-scaling-stroke"  transform=" translate(-948.64, -810.69)" d="M 868 924 C 864 921 877 884 897 842 C 925 779 930 762 921 742 C 907 713 907 687 920 692 C 930 695 1030 904 1030 921 C 1030 926 1025 930 1020 930 C 1014 930 995 900 978 863 L 948 795 L 917 863 C 888 927 880 937 868 924 z" stroke-linecap="round" />
</g>
<g transform="matrix(0.13 0 0 -0.13 562.56 540)"  >
<path style="stroke: rgb(28,3,253); stroke-width: 1; stroke-dasharray: none; stroke-linecap: butt; stroke-dashoffset: 0; stroke-linejoin: miter; stroke-miterlimit: 4; fill: rgb(255,255,255); fill-rule: nonzero; opacity: 1;" vector-effect="non-scaling-stroke"  transform=" translate(-1401.76, -843.55)" d="M 1350 912 C 1337 902 1327 879 1323 854 C 1312 774 1398 726 1455 780 C 1530 851 1430 977 1350 912 z M 1428 894 C 1468 866 1452 780 1405 780 C 1353 780 1330 850 1370 890 C 1394 914 1399 914 1428 894 z" stroke-linecap="round" />
</g>
<g transform="matrix(0.13 0 0 -0.13 585.59 539.05)"  >
<path style="stroke: rgb(28,3,253); stroke-width: 1; stroke-dasharray: none; stroke-linecap: butt; stroke-dashoffset: 0; stroke-linejoin: miter; stroke-miterlimit: 4; fill: rgb(255,255,255); fill-rule: nonzero; opacity: 1;" vector-effect="non-scaling-stroke"  transform=" translate(-1568.86, -845)" d="M 1527 923 C 1523 920 1520 881 1520 838 C 1520 775 1523 760 1535 760 C 1546 760 1550 773 1550 813 C 1550 870 1563 896 1594 902 C 1620 906 1627 930 1603 930 C 1592 930 1578 924 1571 918 C 1560 908 1557 908 1553 918 C 1548 931 1537 934 1527 923 z" stroke-linecap="round" />
</g>
<g transform="matrix(0.13 0 0 -0.13 603.8 539.39)"  >
<path style="stroke: rgb(28,3,253); stroke-width: 1; stroke-dasharray: none; stroke-linecap: butt; stroke-dashoffset: 0; stroke-linejoin: miter; stroke-miterlimit: 4; fill: rgb(255,255,255); fill-rule: nonzero; opacity: 1;" vector-effect="non-scaling-stroke"  transform=" translate(-1706.04, -842.4)" d="M 1660 912 C 1647 902 1637 879 1633 855 C 1624 784 1683 738 1752 762 C 1767 768 1780 779 1780 787 C 1780 798 1775 800 1763 795 C 1725 778 1693 778 1677 795 C 1644 828 1656 840 1720 840 C 1777 840 1780 841 1780 865 C 1780 921 1707 950 1660 912 z M 1743 888 L 1765 865 L 1738 862 C 1722 860 1698 860 1683 862 L 1655 865 L 1678 888 C 1690 900 1705 910 1710 910 C 1716 910 1730 900 1743 888 z" stroke-linecap="round" />
</g>
<g transform="matrix(0.13 0 0 -0.13 639.77 543.62)"  >
<path style="stroke: rgb(28,3,253); stroke-width: 1; stroke-dasharray: none; stroke-linecap: butt; stroke-dashoffset: 0; stroke-linejoin: miter; stroke-miterlimit: 4; fill: rgb(255,255,255); fill-rule: nonzero; opacity: 1;" vector-effect="non-scaling-stroke"  transform=" translate(-1975.97, -809.91)" d="M 1923 915 C 1893 894 1884 841 1904 801 C 1923 766 1960 752 1996 769 C 2018 779 2020 777 2020 755 C 2020 725 1981 712 1938 728 C 1907 739 1892 729 1914 711 C 1935 693 1995 686 2018 699 C 2047 715 2062 772 2058 854 L 2055 924 L 2000 927 C 1962 929 1938 925 1923 915 z M 2018 851 C 2022 812 2006 790 1974 790 C 1942 790 1917 829 1926 865 C 1940 923 2012 912 2018 851 z" stroke-linecap="round" />
</g>
<g transform="matrix(0.13 0 0 -0.13 666.23 539.2)"  >
<path style="stroke: rgb(28,3,253); stroke-width: 1; stroke-dasharray: none; stroke-linecap: butt; stroke-dashoffset: 0; stroke-linejoin: miter; stroke-miterlimit: 4; fill: rgb(255,255,255); fill-rule: nonzero; opacity: 1;" vector-effect="non-scaling-stroke"  transform=" translate(-2174.31, -843.85)" d="M 2127 916 C 2090 888 2089 800 2125 770 C 2145 753 2215 754 2235 770 C 2259 790 2238 803 2207 789 C 2172 773 2130 790 2130 820 C 2130 838 2136 840 2190 840 C 2242 840 2250 843 2250 859 C 2250 869 2241 889 2229 904 C 2206 933 2158 939 2127 916 z M 2212 886 C 2227 865 2220 860 2175 860 C 2130 860 2123 865 2138 886 C 2154 910 2196 910 2212 886 z" stroke-linecap="round" />
</g>
<g transform="matrix(0.13 0 0 -0.13 550.19 588.74)"  >
<path style="stroke: rgb(255,255,255); stroke-width: 1; stroke-dasharray: none; stroke-linecap: butt; stroke-dashoffset: 0; stroke-linejoin: miter; stroke-miterlimit: 4; fill: rgb(140,255,4); fill-rule: nonzero; opacity: 1;" vector-effect="non-scaling-stroke"  transform=" translate(-1305, -471.49)" d="M 1322 510 C 1281 466 1244 430 1238 430 C 1232 430 1218 437 1208 447 C 1193 460 1190 461 1190 449 C 1190 441 1195 429 1202 422 C 1211 413 1210 405 1200 385 C 1193 371 1189 357 1193 354 C 1201 345 1420 560 1420 577 C 1420 605 1392 586 1322 510 z" stroke-linecap="round" />
</g>
<g transform="matrix(0.13 0 0 -0.13 559.26 601.92)"  >
<path style="stroke: rgb(255,255,255); stroke-width: 1; stroke-dasharray: none; stroke-linecap: butt; stroke-dashoffset: 0; stroke-linejoin: miter; stroke-miterlimit: 4; fill: rgb(109,183,7); fill-rule: nonzero; opacity: 1;" vector-effect="non-scaling-stroke"  transform=" translate(-1374.77, -400.88)" d="M 1367 410 C 1269 312 1190 223 1190 213 C 1190 202 1260 265 1375 380 C 1541 546 1578 590 1552 590 C 1547 590 1464 509 1367 410 z" stroke-linecap="round" />
</g>
<g transform="matrix(0.13 0 0 -0.13 572.29 607.48)"  >
<path style="stroke: rgb(255,255,255); stroke-width: 1; stroke-dasharray: none; stroke-linecap: butt; stroke-dashoffset: 0; stroke-linejoin: miter; stroke-miterlimit: 4; fill: rgb(12,56,181); fill-rule: nonzero; opacity: 1;" vector-effect="non-scaling-stroke"  transform=" translate(-1475, -368.6)" d="M 1529 378 L 1322 170 L 1256 170 C 1219 170 1190 166 1190 160 C 1190 154 1223 150 1268 150 L 1347 150 L 1553 359 C 1667 474 1760 573 1760 579 C 1760 606 1721 573 1529 378 z" stroke-linecap="round" />
</g>
<g transform="matrix(0 0 0 0 0 0)"  >
<g style=""   >
</g>
</g>
<g transform="matrix(0 0 0 0 0 0)"  >
<g style=""   >
</g>
</g>
<g transform="matrix(0 0 0 0 0 0)"  >
<g style=""   >
</g>
</g>
<g transform="matrix(0 0 0 0 0 0)"  >
<g style=""   >
</g>
</g>
<g transform="matrix(0 0 0 0 0 0)"  >
<g style=""   >
</g>
</g>
<g transform="matrix(0 0 0 0 0 0)"  >
<g style=""   >
</g>
</g>
<g transform="matrix(0 0 0 0 0 0)"  >
<g style=""   >
</g>
</g>
<g transform="matrix(0 0 0 0 0 0)"  >
<g style=""   >
</g>
</g>
<g transform="matrix(0 0 0 0 0 0)"  >
<g style=""   >
</g>
</g>
<g transform="matrix(0 0 0 0 0 0)"  >
<g style=""   >
</g>
</g>
<g transform="matrix(0 0 0 0 0 0)"  >
<g style=""   >
</g>
</g>
<g transform="matrix(0 0 0 0 0 0)"  >
<g style=""   >
</g>
</g>
<g transform="matrix(0 0 0 0 0 0)"  >
<g style=""   >
</g>
</g>
<g transform="matrix(0 0 0 0 0 0)"  >
<g style=""   >
</g>
</g>
<g transform="matrix(0 0 0 0 0 0)"  >
<g style=""   >
</g>
</g>
<g transform="matrix(0 0 0 0 0 0)"  >
<g style=""   >
</g>
</g>
<g transform="matrix(0 0 0 0 0 0)"  >
<g style=""   >
</g>
</g>
<g transform="matrix(0 0 0 0 0 0)"  >
<g style=""   >
</g>
</g>
<g transform="matrix(0 0 0 0 0 0)"  >
<g style=""   >
</g>
</g>
<g transform="matrix(0 0 0 0 0 0)"  >
<g style=""   >
</g>
</g>
<g transform="matrix(0 0 0 0 0 0)"  >
<g style=""   >
</g>
</g>
<g transform="matrix(0 0 0 0 0 0)"  >
<g style=""   >
</g>
</g>
<g transform="matrix(0 0 0 0 0 0)"  >
<g style=""   >
</g>
</g>
<g transform="matrix(0 0 0 0 0 0)"  >
<g style=""   >
</g>
</g>
<g transform="matrix(0 0 0 0 0 0)"  >
<g style=""   >
</g>
</g>
<g transform="matrix(0 0 0 0 0 0)"  >
<g style=""   >
</g>
</g>
<g transform="matrix(0 0 0 0 0 0)"  >
<g style=""   >
</g>
</g>
<g transform="matrix(0 0 0 0 0 0)"  >
<g style=""   >
</g>
</g>
<g transform="matrix(0 0 0 0 0 0)"  >
<g style=""   >
</g>
</g>
<g transform="matrix(0 0 0 0 0 0)"  >
<g style=""   >
</g>
</g>
<g transform="matrix(0 0 0 0 0 0)"  >
<g style=""   >
</g>
</g>
</svg>