<svg xmlns="http://www.w3.org/2000/svg" version="1.1" xmlns:xlink="http://www.w3.org/1999/xlink" xmlns:svgjs="http://svgjs.dev/svgjs" width="1500" height="1500" viewBox="0 0 1500 1500"><rect width="1500" height="1500" fill="#000000"></rect><g transform="matrix(0.6666666666666666,0,0,0.6666666666666666,249.39393939393938,438.5856950067477)"><svg viewBox="0 0 396 247" data-background-color="#000000" preserveAspectRatio="xMidYMid meet" height="935" width="1500" xmlns="http://www.w3.org/2000/svg" xmlns:xlink="http://www.w3.org/1999/xlink"><g id="tight-bounds" transform="matrix(1,0,0,1,0.2400000000000091,-0.09999999999999432)"><svg viewBox="0 0 395.52 247.2" height="247.2" width="395.52"><rect width="395.52" height="247.2" fill="url(#0a006a59-47c2-4a24-9b32-dbaf42d82005)" mask="url(#c3a207f4-229e-4c03-9e62-fadaa24bb097)" data-fill-palette-color="tertiary"></rect><g><svg></svg></g><g><svg viewBox="0 0 395.52 247.2" height="247.2" width="395.52"><g><path d="M55.039 247.2l26.403-45.732 1.676 0-25.52 44.202h280.324l-25.52-44.202 1.676 0 26.403 45.732zM197.76 0l26.403 45.732-1.675 0-24.728-42.83-24.728 42.83-1.675 0z" fill="url(#0a006a59-47c2-4a24-9b32-dbaf42d82005)" fill-rule="nonzero" stroke="none" stroke-width="1" stroke-linecap="butt" stroke-linejoin="miter" stroke-miterlimit="10" stroke-dasharray="" stroke-dashoffset="0" font-family="none" font-weight="none" font-size="none" text-anchor="none" style="mix-blend-mode: normal" data-fill-palette-color="tertiary"></path></g><g transform="matrix(1,0,0,1,75.97060984947996,67.97999999999999)"><svg viewBox="0 0 243.57878030104007 111.24" height="111.24" width="243.57878030104007"><g><svg viewBox="0 0 243.57878030104007 111.24" height="111.24" width="243.57878030104007"><g><svg viewBox="0 0 395.52 180.63003988123728" height="111.24" width="243.57878030104007"><g transform="matrix(1,0,0,1,0,108.75362483650756)"><svg viewBox="0 0 395.52 71.87641504472971" height="71.87641504472971" width="395.52"><g id="textblocktransform"><svg viewBox="0 0 395.52 71.87641504472971" height="71.87641504472971" width="395.52" id="textblock"><g><svg viewBox="0 0 395.52 71.87641504472971" height="71.87641504472971" width="395.52"><g transform="matrix(1,0,0,1,0,0)"><svg width="395.52" viewBox="-0.5 -35.7 271.15643114142534 50.1" height="71.87641504472971" data-palette-color="#6ee0f5"><g transform="matrix(1,0,0,1,0,0)"><g><svg width="9.921131141425295" viewBox="-1.22 -39.36 80.21 42.36" height="5.180264278972649" data-palette-color="#6ee0f5" id="scriptelement" x="255.68056557071264" y="-28.27483213948633"><path d="M12.91-30.02L1.78-30.02 1.78-36.36 31.64-36.36 31.64-30.02 20.51-30.02 20.51 0 12.91 0 12.91-30.02ZM36.57 0L36.57-36.36 46.06-36.36 56.07-11.93 56.5-11.93 66.51-36.36 75.99-36.36 75.99 0 68.53 0 68.53-23.67 68.23-23.67 58.82-0.18 53.74-0.18 44.33-23.76 44.03-23.76 44.03 0 36.57 0Z" opacity="1" transform="matrix(1,0,0,1,0,0)" fill="#6ee0f5" class="undefined-123" data-fill-palette-color="primary" id="yy-123"></path></svg></g></g><path d="M253.626-25.685C253.626-29.559 256.767-32.7 260.641-32.7 264.516-32.7 267.656-29.559 267.656-25.685 267.656-21.81 264.516-18.669 260.641-18.669 256.767-18.669 253.626-21.81 253.626-25.685ZM260.641-19.069C264.295-19.069 267.256-22.031 267.256-25.685 267.256-29.338 264.295-32.3 260.641-32.3 256.988-32.3 254.026-29.338 254.026-25.685 254.026-22.031 256.988-19.069 260.641-19.069Z" fill="#6ee0f5" id="scriptcircle" data-fill-palette-color="primary"></path><path d="M12.4 0.6L12.4 0.6Q9.1 0.6 5.8-1.2L5.8-1.2Q4.7-1.75 4.3-1.75L4.3-1.75Q3.55-1.75 3.5-0.7L3.5-0.7 3.45 0 2.5 0 2.5-8.35 3.4-8.35Q3.85-4.5 6.28-2.68 8.7-0.85 12.03-0.85 15.35-0.85 17.07-2.65 18.8-4.45 18.8-6.9L18.8-6.9Q18.8-10.8 14.3-12.8L14.3-12.8 8.35-15.45Q5.65-16.65 4.3-18.73 2.95-20.8 2.95-23.2L2.95-23.2Q2.95-26.85 5.4-29.48 7.85-32.1 12.45-32.1L12.45-32.1Q15.15-32.1 18-30.3L18-30.3Q18.95-29.75 19.3-29.75L19.3-29.75Q19.95-29.75 20-30.8L20-30.8 20.05-31.8 21-31.8 21-23.15 20.1-23.15Q19.7-27 17.63-28.83 15.55-30.65 12.58-30.65 9.6-30.65 7.98-29.03 6.35-27.4 6.35-25.33 6.35-23.25 7.48-21.6 8.6-19.95 10.8-19L10.8-19 16.8-16.35Q19.8-15 21.33-12.83 22.85-10.65 22.85-8.15L22.85-8.15Q22.85-4.6 20-2 17.15 0.6 12.4 0.6ZM39.15-11.2L39.15-11.65 39.2-13.4 39.2-15.15Q39.2-21 35.4-21L35.4-21Q33.75-21 32.82-19.88 31.9-18.75 31.9-17.25 31.9-15.75 32.3-14.65L32.3-14.65Q31.45-13.9 29.95-13.9 28.45-13.9 28.45-16.35 28.45-18.8 30.37-20.5 32.3-22.2 35.85-22.2L35.85-22.2Q42.8-22.2 42.8-14L42.8-14 42.8-3.75Q42.8-1.05 44.3-1.05L44.3-1.05Q45-1.05 45.52-1.7 46.05-2.35 46.05-3.2 46.05-4.05 45.9-4.8L45.9-4.8 46.85-4.95Q47.05-4.2 47.05-3.3L47.05-3.3Q47.05-1.5 45.97-0.45 44.9 0.6 43.15 0.6 41.4 0.6 40.3-0.83 39.2-2.25 39.2-5.1L39.2-5.1 39.2-6Q38.35-2.6 36.5-1 34.65 0.6 32.22 0.6 29.8 0.6 28.32-0.93 26.85-2.45 26.85-4.98 26.85-7.5 29.2-9.47 31.55-11.45 35.95-11.45L35.95-11.45Q36.9-11.45 39.15-11.2L39.15-11.2ZM33.35-1.3L33.35-1.3Q35.45-1.3 37.12-3.68 38.8-6.05 39.1-10.35L39.1-10.35Q38.6-10.4 37.7-10.4L37.7-10.4Q33.7-10.4 31.97-8.72 30.25-7.05 30.25-4.85L30.25-4.85Q30.25-3.4 31.1-2.35 31.95-1.3 33.35-1.3ZM70.4-14.6L70.4-14.6 70.4-1.5Q70.4-0.9 71.09-0.9L71.09-0.9 73.45-0.9 73.45 0 64.45 0 64.45-0.9 66.09-0.9Q66.8-0.9 66.8-1.5L66.8-1.5 66.8-15.25Q66.8-17.8 65.67-19.03 64.55-20.25 62.7-20.25L62.7-20.25Q60.09-20.25 58.4-17.18 56.7-14.1 56.7-8.35L56.7-8.35 56.7-1.6Q56.7-0.9 57.4-0.9L57.4-0.9 59.05-0.9 59.05 0 50.05 0 50.05-0.9 52.4-0.9Q53.09-0.9 53.09-1.5L53.09-1.5 53.09-20Q53.09-20.7 52.4-20.7L52.4-20.7 50.05-20.7 50.05-21.6 52.5-21.6Q55.5-21.6 56.7-21.9L56.7-21.9 56.7-15.1Q58.4-22.2 64.2-22.2L64.2-22.2Q66.8-22.2 68.59-20.33 70.4-18.45 70.4-14.6ZM79.74-1.6L79.74-1.6 79.74-30.8Q79.74-31.5 79.04-31.5L79.04-31.5 76.69-31.5 76.69-32.4 79.14-32.4Q82.14-32.4 83.34-32.7L83.34-32.7 83.34-1.6Q83.34-0.9 84.04-0.9L84.04-0.9 86.39-0.9 86.39 0 76.69 0 76.69-0.9 79.04-0.9Q79.74-0.9 79.74-1.6ZM102.39-20.7L102.39-21.6 108.74-21.6 108.74-20.7 106.89-20.7Q106.44-20.7 106.19-20L106.19-20 97.54 3.15Q97.39 3.6 97.04 4.5L97.04 4.5 96.49 5.85Q96.34 6.3 96.04 7.08 95.74 7.85 95.54 8.28 95.34 8.7 95.04 9.3L95.04 9.3Q94.69 10.05 94.04 10.73 93.39 11.4 92.69 11.4 91.99 11.4 91.22 10.53 90.44 9.65 90.29 8.65L90.29 8.65Q94.84 6.7 96.49 2.15L96.49 2.15 97.34-0.15 89.94-20Q89.69-20.7 89.24-20.7L89.24-20.7 87.39-20.7 87.39-21.6 95.89-21.6 95.89-20.7 93.39-20.7 99.14-4.9 104.94-20.7 102.39-20.7ZM127.54-30.6L127.54-31.5 134.34-31.5 134.34-30.6 132.49-30.6Q131.79-30.6 131.54-29.9L131.54-29.9 123.89-11.45 123.89-1.6Q123.89-0.9 124.59-0.9L124.59-0.9 128.19-0.9 128.19 0 115.49 0 115.49-0.9 119.09-0.9Q119.79-0.9 119.79-1.6L119.79-1.6 119.79-11.5 111.29-29.9Q110.94-30.6 110.34-30.6L110.34-30.6 108.49-30.6 108.49-31.5 118.04-31.5 118.04-30.6 115.54-30.6 123.19-14 130.04-30.6 127.54-30.6ZM134.64-2.45Q131.84-5.5 131.84-10.8 131.84-16.1 134.64-19.15 137.44-22.2 141.94-22.2 146.44-22.2 149.26-19.15 152.09-16.1 152.09-10.8 152.09-5.5 149.26-2.45 146.44 0.6 141.94 0.6 137.44 0.6 134.64-2.45ZM137.44-18.32Q135.64-15.55 135.64-10.8 135.64-6.05 137.44-3.28 139.24-0.5 141.94-0.5 144.64-0.5 146.46-3.28 148.28-6.05 148.28-10.8 148.28-15.55 146.46-18.32 144.64-21.1 141.94-21.1 139.24-21.1 137.44-18.32ZM168.83-22.2Q170.78-22.2 172.01-20.55 173.23-18.9 173.23-16.4 173.23-13.9 171.18-13.9L171.18-13.9Q169.98-13.9 169.23-14.65L169.23-14.65Q169.88-16.1 169.88-17.6L169.88-17.6Q169.88-20.25 167.68-20.25L167.68-20.25Q165.83-20.25 164.41-17.18 162.98-14.1 162.98-8.25L162.98-8.25 162.98-1.6Q162.98-0.9 163.68-0.9L163.68-0.9 167.03-0.9 167.03 0 156.33 0 156.33-0.9 158.68-0.9Q159.38-0.9 159.38-1.6L159.38-1.6 159.38-20Q159.38-20.7 158.68-20.7L158.68-20.7 156.33-20.7 156.33-21.6 158.78-21.6Q161.78-21.6 162.98-21.9L162.98-21.9 162.98-15.5Q163.78-18.95 165.33-20.58 166.88-22.2 168.83-22.2ZM185.58-22.2L185.58-22.2Q189.03-22.2 191.03-19.9 193.03-17.6 193.03-13.15L193.03-13.15Q193.03-12.25 192.93-11.15L192.93-11.15 179.28-11.15 179.28-10.8Q179.28-6.05 181.01-3.33 182.73-0.6 185.46-0.6 188.18-0.6 189.93-2 191.68-3.4 192.33-6L192.33-6 193.28-5.8Q192.68-2.75 190.53-1.07 188.38 0.6 185.58 0.6L185.58 0.6Q181.23 0.6 178.36-2.45 175.48-5.5 175.48-10.78 175.48-16.05 178.38-19.13 181.28-22.2 185.58-22.2ZM189.58-14.85L189.58-14.85Q189.58-21 184.98-21L184.98-21Q182.68-21 181.06-18.5 179.43-16 179.33-12.15L179.33-12.15 189.38-12.15Q189.58-13.85 189.58-14.85ZM200.08-1.6L200.08-1.6 200.08-30.8Q200.08-31.5 199.38-31.5L199.38-31.5 197.03-31.5 197.03-32.4 199.48-32.4Q202.48-32.4 203.68-32.7L203.68-32.7 203.68-1.6Q203.68-0.9 204.38-0.9L204.38-0.9 206.73-0.9 206.73 0 197.03 0 197.03-0.9 199.38-0.9Q200.08-0.9 200.08-1.6ZM229.63-21L229.63-21 229.23-21.05Q228.78-24.15 226.98-24.15L226.98-24.15Q226.08-24.15 225.33-23.2 224.58-22.25 224.43-20.7L224.43-20.7Q227.13-18.65 227.13-15 227.13-11.35 225-9.38 222.88-7.4 219.48-7.4L219.48-7.4 215.03-7.4Q213.78-7.4 213.1-6.7 212.43-6 212.43-5.05 212.43-4.1 213.1-3.4 213.78-2.7 215.03-2.7L215.03-2.7 223.38-2.7Q226.38-2.7 227.9-1.33 229.43 0.05 229.43 2.15L229.43 2.15Q229.43 5.5 226.28 8.45 223.13 11.4 218.43 11.4L218.43 11.4Q214.83 11.4 212.58 9.7 210.33 8 210.33 5.4 210.33 2.8 213.08 0.4L213.08 0.4Q211.78 0.05 211-1.07 210.23-2.2 210.23-3.85 210.23-5.5 211.43-6.83 212.63-8.15 215.03-8.15L215.03-8.15 215.78-8.15Q211.88-9.95 211.88-14.8L211.88-14.8Q211.88-18.25 213.98-20.23 216.08-22.2 219.48-22.2L219.48-22.2Q221.73-22.2 223.43-21.3L223.43-21.3Q223.78-23.3 224.85-24.6 225.93-25.9 227.7-25.9 229.48-25.9 230.65-24.95 231.83-24 231.83-22.9L231.83-22.9Q231.83-21 229.63-21ZM223.38 0.6L223.38 0.6 214.63 0.6Q213.03 2.45 213.03 4.8 213.03 7.15 214.43 8.68 215.83 10.2 218.95 10.2 222.08 10.2 224.63 8 227.18 5.8 227.18 3.45L227.18 3.45Q227.18 2.2 226.23 1.4 225.28 0.6 223.38 0.6ZM216.58-19.4Q215.43-17.7 215.43-14.8 215.43-11.9 216.58-10.2 217.73-8.5 219.48-8.5 221.23-8.5 222.4-10.2 223.58-11.9 223.58-14.8 223.58-17.7 222.4-19.4 221.23-21.1 219.48-21.1 217.73-21.1 216.58-19.4ZM243.02-22.2L243.02-22.2Q246.47-22.2 248.47-19.9 250.47-17.6 250.47-13.15L250.47-13.15Q250.47-12.25 250.37-11.15L250.37-11.15 236.72-11.15 236.72-10.8Q236.72-6.05 238.45-3.33 240.17-0.6 242.9-0.6 245.62-0.6 247.37-2 249.12-3.4 249.77-6L249.77-6 250.72-5.8Q250.12-2.75 247.97-1.07 245.82 0.6 243.02 0.6L243.02 0.6Q238.67 0.6 235.8-2.45 232.92-5.5 232.92-10.78 232.92-16.05 235.82-19.13 238.72-22.2 243.02-22.2ZM247.02-14.85L247.02-14.85Q247.02-21 242.42-21L242.42-21Q240.12-21 238.5-18.5 236.87-16 236.77-12.15L236.77-12.15 246.82-12.15Q247.02-13.85 247.02-14.85Z" opacity="1" transform="matrix(1,0,0,1,0,0)" fill="#6ee0f5" class="wordmark-text-0" data-fill-palette-color="primary" id="text-0"></path></svg></g></svg></g></svg></g></svg></g><g transform="matrix(1,0,0,1,100.03586361323458,0)"><svg viewBox="0 0 195.44827277353082 99.33320559181645" height="99.33320559181645" width="195.44827277353082"><g><svg xmlns="http://www.w3.org/2000/svg" xmlns:xlink="http://www.w3.org/1999/xlink" version="1.1" x="0" y="0" viewBox="4.4 26.799999999999997 91.1 46.30000000000001" enable-background="new 0 0 100 100" xml:space="preserve" height="99.33320559181645" width="195.44827277353082" class="icon-icon-0" data-fill-palette-color="accent" id="icon-0"></svg></g></svg></g><g></g></svg></g></svg></g></svg></g></svg></g><defs></defs><mask id="7c476330-64cf-4728-aac1-9f16683e7a84"><g id="SvgjsG2116"><svg viewBox="0 0 395.52 247.2" height="247.2" width="395.52"><g><svg></svg></g><g><svg viewBox="0 0 395.52 247.2" height="247.2" width="395.52"><g><path d="M55.039 247.2l26.403-45.732 1.676 0-25.52 44.202h280.324l-25.52-44.202 1.676 0 26.403 45.732zM197.76 0l26.403 45.732-1.675 0-24.728-42.83-24.728 42.83-1.675 0z" fill="black" fill-rule="nonzero" stroke="none" stroke-width="1" stroke-linecap="butt" stroke-linejoin="miter" stroke-miterlimit="10" stroke-dasharray="" stroke-dashoffset="0" font-family="none" font-weight="none" font-size="none" text-anchor="none" style="mix-blend-mode: normal"></path></g><g transform="matrix(1,0,0,1,75.97060984947996,67.97999999999999)"><svg viewBox="0 0 243.57878030104007 111.24" height="111.24" width="243.57878030104007"><g><svg viewBox="0 0 243.57878030104007 111.24" height="111.24" width="243.57878030104007"><g><svg viewBox="0 0 395.52 180.63003988123728" height="111.24" width="243.57878030104007"><g transform="matrix(1,0,0,1,0,108.75362483650756)"><svg viewBox="0 0 395.52 71.87641504472971" height="71.87641504472971" width="395.52"><g id="SvgjsG2115"><svg viewBox="0 0 395.52 71.87641504472971" height="71.87641504472971" width="395.52" id="SvgjsSvg2114"><g><svg viewBox="0 0 395.52 71.87641504472971" height="71.87641504472971" width="395.52"><g transform="matrix(1,0,0,1,0,0)"><svg width="395.52" viewBox="-0.5 -35.7 271.15643114142534 50.1" height="71.87641504472971" data-palette-color="#6ee0f5"><g transform="matrix(1,0,0,1,0,0)"><g><svg width="9.921131141425295" viewBox="-1.22 -39.36 80.21 42.36" height="5.180264278972649" data-palette-color="#6ee0f5" id="SvgjsSvg2113" x="255.68056557071264" y="-28.27483213948633"><path d="M12.91-30.02L1.78-30.02 1.78-36.36 31.64-36.36 31.64-30.02 20.51-30.02 20.51 0 12.91 0 12.91-30.02ZM36.57 0L36.57-36.36 46.06-36.36 56.07-11.93 56.5-11.93 66.51-36.36 75.99-36.36 75.99 0 68.53 0 68.53-23.67 68.23-23.67 58.82-0.18 53.74-0.18 44.33-23.76 44.03-23.76 44.03 0 36.57 0Z" opacity="1" transform="matrix(1,0,0,1,0,0)" fill="black" class="undefined-123" id="SvgjsPath2112"></path></svg></g></g><path d="M253.626-25.685C253.626-29.559 256.767-32.7 260.641-32.7 264.516-32.7 267.656-29.559 267.656-25.685 267.656-21.81 264.516-18.669 260.641-18.669 256.767-18.669 253.626-21.81 253.626-25.685ZM260.641-19.069C264.295-19.069 267.256-22.031 267.256-25.685 267.256-29.338 264.295-32.3 260.641-32.3 256.988-32.3 254.026-29.338 254.026-25.685 254.026-22.031 256.988-19.069 260.641-19.069Z" fill="black" id="SvgjsPath2111"></path><path d="M12.4 0.6L12.4 0.6Q9.1 0.6 5.8-1.2L5.8-1.2Q4.7-1.75 4.3-1.75L4.3-1.75Q3.55-1.75 3.5-0.7L3.5-0.7 3.45 0 2.5 0 2.5-8.35 3.4-8.35Q3.85-4.5 6.28-2.68 8.7-0.85 12.03-0.85 15.35-0.85 17.07-2.65 18.8-4.45 18.8-6.9L18.8-6.9Q18.8-10.8 14.3-12.8L14.3-12.8 8.35-15.45Q5.65-16.65 4.3-18.73 2.95-20.8 2.95-23.2L2.95-23.2Q2.95-26.85 5.4-29.48 7.85-32.1 12.45-32.1L12.45-32.1Q15.15-32.1 18-30.3L18-30.3Q18.95-29.75 19.3-29.75L19.3-29.75Q19.95-29.75 20-30.8L20-30.8 20.05-31.8 21-31.8 21-23.15 20.1-23.15Q19.7-27 17.63-28.83 15.55-30.65 12.58-30.65 9.6-30.65 7.98-29.03 6.35-27.4 6.35-25.33 6.35-23.25 7.48-21.6 8.6-19.95 10.8-19L10.8-19 16.8-16.35Q19.8-15 21.33-12.83 22.85-10.65 22.85-8.15L22.85-8.15Q22.85-4.6 20-2 17.15 0.6 12.4 0.6ZM39.15-11.2L39.15-11.65 39.2-13.4 39.2-15.15Q39.2-21 35.4-21L35.4-21Q33.75-21 32.82-19.88 31.9-18.75 31.9-17.25 31.9-15.75 32.3-14.65L32.3-14.65Q31.45-13.9 29.95-13.9 28.45-13.9 28.45-16.35 28.45-18.8 30.37-20.5 32.3-22.2 35.85-22.2L35.85-22.2Q42.8-22.2 42.8-14L42.8-14 42.8-3.75Q42.8-1.05 44.3-1.05L44.3-1.05Q45-1.05 45.52-1.7 46.05-2.35 46.05-3.2 46.05-4.05 45.9-4.8L45.9-4.8 46.85-4.95Q47.05-4.2 47.05-3.3L47.05-3.3Q47.05-1.5 45.97-0.45 44.9 0.6 43.15 0.6 41.4 0.6 40.3-0.83 39.2-2.25 39.2-5.1L39.2-5.1 39.2-6Q38.35-2.6 36.5-1 34.65 0.6 32.22 0.6 29.8 0.6 28.32-0.93 26.85-2.45 26.85-4.98 26.85-7.5 29.2-9.47 31.55-11.45 35.95-11.45L35.95-11.45Q36.9-11.45 39.15-11.2L39.15-11.2ZM33.35-1.3L33.35-1.3Q35.45-1.3 37.12-3.68 38.8-6.05 39.1-10.35L39.1-10.35Q38.6-10.4 37.7-10.4L37.7-10.4Q33.7-10.4 31.97-8.72 30.25-7.05 30.25-4.85L30.25-4.85Q30.25-3.4 31.1-2.35 31.95-1.3 33.35-1.3ZM70.4-14.6L70.4-14.6 70.4-1.5Q70.4-0.9 71.09-0.9L71.09-0.9 73.45-0.9 73.45 0 64.45 0 64.45-0.9 66.09-0.9Q66.8-0.9 66.8-1.5L66.8-1.5 66.8-15.25Q66.8-17.8 65.67-19.03 64.55-20.25 62.7-20.25L62.7-20.25Q60.09-20.25 58.4-17.18 56.7-14.1 56.7-8.35L56.7-8.35 56.7-1.6Q56.7-0.9 57.4-0.9L57.4-0.9 59.05-0.9 59.05 0 50.05 0 50.05-0.9 52.4-0.9Q53.09-0.9 53.09-1.5L53.09-1.5 53.09-20Q53.09-20.7 52.4-20.7L52.4-20.7 50.05-20.7 50.05-21.6 52.5-21.6Q55.5-21.6 56.7-21.9L56.7-21.9 56.7-15.1Q58.4-22.2 64.2-22.2L64.2-22.2Q66.8-22.2 68.59-20.33 70.4-18.45 70.4-14.6ZM79.74-1.6L79.74-1.6 79.74-30.8Q79.74-31.5 79.04-31.5L79.04-31.5 76.69-31.5 76.69-32.4 79.14-32.4Q82.14-32.4 83.34-32.7L83.34-32.7 83.34-1.6Q83.34-0.9 84.04-0.9L84.04-0.9 86.39-0.9 86.39 0 76.69 0 76.69-0.9 79.04-0.9Q79.74-0.9 79.74-1.6ZM102.39-20.7L102.39-21.6 108.74-21.6 108.74-20.7 106.89-20.7Q106.44-20.7 106.19-20L106.19-20 97.54 3.15Q97.39 3.6 97.04 4.5L97.04 4.5 96.49 5.85Q96.34 6.3 96.04 7.08 95.74 7.85 95.54 8.28 95.34 8.7 95.04 9.3L95.04 9.3Q94.69 10.05 94.04 10.73 93.39 11.4 92.69 11.4 91.99 11.4 91.22 10.53 90.44 9.65 90.29 8.65L90.29 8.65Q94.84 6.7 96.49 2.15L96.49 2.15 97.34-0.15 89.94-20Q89.69-20.7 89.24-20.7L89.24-20.7 87.39-20.7 87.39-21.6 95.89-21.6 95.89-20.7 93.39-20.7 99.14-4.9 104.94-20.7 102.39-20.7ZM127.54-30.6L127.54-31.5 134.34-31.5 134.34-30.6 132.49-30.6Q131.79-30.6 131.54-29.9L131.54-29.9 123.89-11.45 123.89-1.6Q123.89-0.9 124.59-0.9L124.59-0.9 128.19-0.9 128.19 0 115.49 0 115.49-0.9 119.09-0.9Q119.79-0.9 119.79-1.6L119.79-1.6 119.79-11.5 111.29-29.9Q110.94-30.6 110.34-30.6L110.34-30.6 108.49-30.6 108.49-31.5 118.04-31.5 118.04-30.6 115.54-30.6 123.19-14 130.04-30.6 127.54-30.6ZM134.64-2.45Q131.84-5.5 131.84-10.8 131.84-16.1 134.64-19.15 137.44-22.2 141.94-22.2 146.44-22.2 149.26-19.15 152.09-16.1 152.09-10.8 152.09-5.5 149.26-2.45 146.44 0.6 141.94 0.6 137.44 0.6 134.64-2.45ZM137.44-18.32Q135.64-15.55 135.64-10.8 135.64-6.05 137.44-3.28 139.24-0.5 141.94-0.5 144.64-0.5 146.46-3.28 148.28-6.05 148.28-10.8 148.28-15.55 146.46-18.32 144.64-21.1 141.94-21.1 139.24-21.1 137.44-18.32ZM168.83-22.2Q170.78-22.2 172.01-20.55 173.23-18.9 173.23-16.4 173.23-13.9 171.18-13.9L171.18-13.9Q169.98-13.9 169.23-14.65L169.23-14.65Q169.88-16.1 169.88-17.6L169.88-17.6Q169.88-20.25 167.68-20.25L167.68-20.25Q165.83-20.25 164.41-17.18 162.98-14.1 162.98-8.25L162.98-8.25 162.98-1.6Q162.98-0.9 163.68-0.9L163.68-0.9 167.03-0.9 167.03 0 156.33 0 156.33-0.9 158.68-0.9Q159.38-0.9 159.38-1.6L159.38-1.6 159.38-20Q159.38-20.7 158.68-20.7L158.68-20.7 156.33-20.7 156.33-21.6 158.78-21.6Q161.78-21.6 162.98-21.9L162.98-21.9 162.98-15.5Q163.78-18.95 165.33-20.58 166.88-22.2 168.83-22.2ZM185.58-22.2L185.58-22.2Q189.03-22.2 191.03-19.9 193.03-17.6 193.03-13.15L193.03-13.15Q193.03-12.25 192.93-11.15L192.93-11.15 179.28-11.15 179.28-10.8Q179.28-6.05 181.01-3.33 182.73-0.6 185.46-0.6 188.18-0.6 189.93-2 191.68-3.4 192.33-6L192.33-6 193.28-5.8Q192.68-2.75 190.53-1.07 188.38 0.6 185.58 0.6L185.58 0.6Q181.23 0.6 178.36-2.45 175.48-5.5 175.48-10.78 175.48-16.05 178.38-19.13 181.28-22.2 185.58-22.2ZM189.58-14.85L189.58-14.85Q189.58-21 184.98-21L184.98-21Q182.68-21 181.06-18.5 179.43-16 179.33-12.15L179.33-12.15 189.38-12.15Q189.58-13.85 189.58-14.85ZM200.08-1.6L200.08-1.6 200.08-30.8Q200.08-31.5 199.38-31.5L199.38-31.5 197.03-31.5 197.03-32.4 199.48-32.4Q202.48-32.4 203.68-32.7L203.68-32.7 203.68-1.6Q203.68-0.9 204.38-0.9L204.38-0.9 206.73-0.9 206.73 0 197.03 0 197.03-0.9 199.38-0.9Q200.08-0.9 200.08-1.6ZM229.63-21L229.63-21 229.23-21.05Q228.78-24.15 226.98-24.15L226.98-24.15Q226.08-24.15 225.33-23.2 224.58-22.25 224.43-20.7L224.43-20.7Q227.13-18.65 227.13-15 227.13-11.35 225-9.38 222.88-7.4 219.48-7.4L219.48-7.4 215.03-7.4Q213.78-7.4 213.1-6.7 212.43-6 212.43-5.05 212.43-4.1 213.1-3.4 213.78-2.7 215.03-2.7L215.03-2.7 223.38-2.7Q226.38-2.7 227.9-1.33 229.43 0.05 229.43 2.15L229.43 2.15Q229.43 5.5 226.28 8.45 223.13 11.4 218.43 11.4L218.43 11.4Q214.83 11.4 212.58 9.7 210.33 8 210.33 5.4 210.33 2.8 213.08 0.4L213.08 0.4Q211.78 0.05 211-1.07 210.23-2.2 210.23-3.85 210.23-5.5 211.43-6.83 212.63-8.15 215.03-8.15L215.03-8.15 215.78-8.15Q211.88-9.95 211.88-14.8L211.88-14.8Q211.88-18.25 213.98-20.23 216.08-22.2 219.48-22.2L219.48-22.2Q221.73-22.2 223.43-21.3L223.43-21.3Q223.78-23.3 224.85-24.6 225.93-25.9 227.7-25.9 229.48-25.9 230.65-24.95 231.83-24 231.83-22.9L231.83-22.9Q231.83-21 229.63-21ZM223.38 0.6L223.38 0.6 214.63 0.6Q213.03 2.45 213.03 4.8 213.03 7.15 214.43 8.68 215.83 10.2 218.95 10.2 222.08 10.2 224.63 8 227.18 5.8 227.18 3.45L227.18 3.45Q227.18 2.2 226.23 1.4 225.28 0.6 223.38 0.6ZM216.58-19.4Q215.43-17.7 215.43-14.8 215.43-11.9 216.58-10.2 217.73-8.5 219.48-8.5 221.23-8.5 222.4-10.2 223.58-11.9 223.58-14.8 223.58-17.7 222.4-19.4 221.23-21.1 219.48-21.1 217.73-21.1 216.58-19.4ZM243.02-22.2L243.02-22.2Q246.47-22.2 248.47-19.9 250.47-17.6 250.47-13.15L250.47-13.15Q250.47-12.25 250.37-11.15L250.37-11.15 236.72-11.15 236.72-10.8Q236.72-6.05 238.45-3.33 240.17-0.6 242.9-0.6 245.62-0.6 247.37-2 249.12-3.4 249.77-6L249.77-6 250.72-5.8Q250.12-2.75 247.97-1.07 245.82 0.6 243.02 0.6L243.02 0.6Q238.67 0.6 235.8-2.45 232.92-5.5 232.92-10.78 232.92-16.05 235.82-19.13 238.72-22.2 243.02-22.2ZM247.02-14.85L247.02-14.85Q247.02-21 242.42-21L242.42-21Q240.12-21 238.5-18.5 236.87-16 236.77-12.15L236.77-12.15 246.82-12.15Q247.02-13.85 247.02-14.85Z" opacity="1" transform="matrix(1,0,0,1,0,0)" fill="black" class="wordmark-text-0" id="SvgjsPath2110"></path></svg></g></svg></g></svg></g></svg></g><g transform="matrix(1,0,0,1,100.03586361323458,0)"><svg viewBox="0 0 195.44827277353082 99.33320559181645" height="99.33320559181645" width="195.44827277353082"><g><svg xmlns="http://www.w3.org/2000/svg" xmlns:xlink="http://www.w3.org/1999/xlink" version="1.1" x="0" y="0" viewBox="4.4 26.799999999999997 91.1 46.30000000000001" enable-background="new 0 0 100 100" xml:space="preserve" height="99.33320559181645" width="195.44827277353082" class="icon-icon-0" data-fill-palette-color="accent" id="SvgjsSvg2109"><g fill="white"><path fill="black" d="M38.3 29.9L26.6 50l11.6 20.1h23.2L73.1 50 61.5 29.9H38.3zM58.6 65.1H41.2L32.5 50l8.7-15.1h17.4L67.3 50 58.6 65.1z"></path><path fill="black" d="M42.1 36.4L34.2 50l7.8 13.6h15.6L65.5 50l-7.8-13.6H42.1zM54.3 57.7h-8.9L41 50l4.4-7.7h8.9l4.4 7.7L54.3 57.7z"></path><path d="M41.2 34.9L32.5 50l8.7 15.1h17.4L67.3 50l-8.7-15.1H41.2zM57.7 63.6H42.1L34.2 50l7.8-13.6h15.6L65.5 50 57.7 63.6z" fill="white"></path><polygon points="45.5,42.3 41,50 45.5,57.7 54.3,57.7 58.7,50 54.3,42.3  " fill="white"></polygon><path d="M95.5 40.3l-9.1-5.2v4.5H70.6l-3.8-6.6h7c0.4 1.8 1.9 3.1 3.8 3.1 2.1 0 3.9-1.7 3.9-3.9s-1.7-3.9-3.9-3.9c-1.9 0-3.4 1.3-3.8 3.1h-7.8l-2.6-4.6H36.5L23.1 50l5.2 9H13.5v-4.5l-9.1 5.2 9.1 5.2v-4.5h15.7l3.8 6.6h-6.8c-0.4-1.8-1.9-3.1-3.8-3.1-2.1 0-3.9 1.7-3.9 3.9 0 2.1 1.7 3.9 3.9 3.9 1.9 0 3.4-1.3 3.8-3.1h7.7l2.6 4.5h26.7L76.6 50l-5.2-8.9h15v4.5L95.5 40.3zM61.5 70.1H38.3L26.6 50l11.6-20.1h23.2L73.1 50 61.5 70.1z" fill="white"></path></g></svg></g></svg></g><g></g></svg></g></svg></g></svg></g></svg></g><defs><mask></mask></defs></svg><rect width="395.52" height="247.2" fill="black" stroke="none" visibility="hidden"></rect></g></mask><linearGradient x1="0" x2="1" y1="0.578" y2="0.595" id="0945051a-3a00-486b-bad0-6fd26174b75a"><stop stop-color="#6ee2f5" offset="0"></stop><stop stop-color="#6454f0" offset="1"></stop></linearGradient><rect width="395.52" height="247.2" fill="url(#0945051a-3a00-486b-bad0-6fd26174b75a)" mask="url(#7c476330-64cf-4728-aac1-9f16683e7a84)" data-fill-palette-color="accent"></rect><mask id="c3a207f4-229e-4c03-9e62-fadaa24bb097"><g id="SvgjsG2132"><svg viewBox="0 0 395.52 247.2" height="247.2" width="395.52"><g><svg></svg></g><g><svg viewBox="0 0 395.52 247.2" height="247.2" width="395.52"><g><path d="M55.039 247.2l26.403-45.732 1.676 0-25.52 44.202h280.324l-25.52-44.202 1.676 0 26.403 45.732zM197.76 0l26.403 45.732-1.675 0-24.728-42.83-24.728 42.83-1.675 0z" fill="white" fill-rule="nonzero" stroke="none" stroke-width="1" stroke-linecap="butt" stroke-linejoin="miter" stroke-miterlimit="10" stroke-dasharray="" stroke-dashoffset="0" font-family="none" font-weight="none" font-size="none" text-anchor="none" style="mix-blend-mode: normal"></path></g><g transform="matrix(1,0,0,1,75.97060984947996,67.97999999999999)"><svg viewBox="0 0 243.57878030104007 111.24" height="111.24" width="243.57878030104007"><g><svg viewBox="0 0 243.57878030104007 111.24" height="111.24" width="243.57878030104007"><g><svg viewBox="0 0 395.52 180.63003988123728" height="111.24" width="243.57878030104007"><g transform="matrix(1,0,0,1,0,108.75362483650756)"><svg viewBox="0 0 395.52 71.87641504472971" height="71.87641504472971" width="395.52"><g id="SvgjsG2131"><svg viewBox="0 0 395.52 71.87641504472971" height="71.87641504472971" width="395.52" id="SvgjsSvg2130"><g><svg viewBox="0 0 395.52 71.87641504472971" height="71.87641504472971" width="395.52"><g transform="matrix(1,0,0,1,0,0)"><svg width="395.52" viewBox="-0.5 -35.7 271.15643114142534 50.1" height="71.87641504472971" data-palette-color="#6ee0f5"><g transform="matrix(1,0,0,1,0,0)"><g><svg width="9.921131141425295" viewBox="-1.22 -39.36 80.21 42.36" height="5.180264278972649" data-palette-color="#6ee0f5" id="SvgjsSvg2129" x="255.68056557071264" y="-28.27483213948633"><path d="M12.91-30.02L1.78-30.02 1.78-36.36 31.64-36.36 31.64-30.02 20.51-30.02 20.51 0 12.91 0 12.91-30.02ZM36.57 0L36.57-36.36 46.06-36.36 56.07-11.93 56.5-11.93 66.51-36.36 75.99-36.36 75.99 0 68.53 0 68.53-23.67 68.23-23.67 58.82-0.18 53.74-0.18 44.33-23.76 44.03-23.76 44.03 0 36.57 0Z" opacity="1" transform="matrix(1,0,0,1,0,0)" fill="black" class="undefined-123" id="SvgjsPath2128"></path></svg></g></g><path d="M253.626-25.685C253.626-29.559 256.767-32.7 260.641-32.7 264.516-32.7 267.656-29.559 267.656-25.685 267.656-21.81 264.516-18.669 260.641-18.669 256.767-18.669 253.626-21.81 253.626-25.685ZM260.641-19.069C264.295-19.069 267.256-22.031 267.256-25.685 267.256-29.338 264.295-32.3 260.641-32.3 256.988-32.3 254.026-29.338 254.026-25.685 254.026-22.031 256.988-19.069 260.641-19.069Z" fill="black" id="SvgjsPath2127"></path><path d="M12.4 0.6L12.4 0.6Q9.1 0.6 5.8-1.2L5.8-1.2Q4.7-1.75 4.3-1.75L4.3-1.75Q3.55-1.75 3.5-0.7L3.5-0.7 3.45 0 2.5 0 2.5-8.35 3.4-8.35Q3.85-4.5 6.28-2.68 8.7-0.85 12.03-0.85 15.35-0.85 17.07-2.65 18.8-4.45 18.8-6.9L18.8-6.9Q18.8-10.8 14.3-12.8L14.3-12.8 8.35-15.45Q5.65-16.65 4.3-18.73 2.95-20.8 2.95-23.2L2.95-23.2Q2.95-26.85 5.4-29.48 7.85-32.1 12.45-32.1L12.45-32.1Q15.15-32.1 18-30.3L18-30.3Q18.95-29.75 19.3-29.75L19.3-29.75Q19.95-29.75 20-30.8L20-30.8 20.05-31.8 21-31.8 21-23.15 20.1-23.15Q19.7-27 17.63-28.83 15.55-30.65 12.58-30.65 9.6-30.65 7.98-29.03 6.35-27.4 6.35-25.33 6.35-23.25 7.48-21.6 8.6-19.95 10.8-19L10.8-19 16.8-16.35Q19.8-15 21.33-12.83 22.85-10.65 22.85-8.15L22.85-8.15Q22.85-4.6 20-2 17.15 0.6 12.4 0.6ZM39.15-11.2L39.15-11.65 39.2-13.4 39.2-15.15Q39.2-21 35.4-21L35.4-21Q33.75-21 32.82-19.88 31.9-18.75 31.9-17.25 31.9-15.75 32.3-14.65L32.3-14.65Q31.45-13.9 29.95-13.9 28.45-13.9 28.45-16.35 28.45-18.8 30.37-20.5 32.3-22.2 35.85-22.2L35.85-22.2Q42.8-22.2 42.8-14L42.8-14 42.8-3.75Q42.8-1.05 44.3-1.05L44.3-1.05Q45-1.05 45.52-1.7 46.05-2.35 46.05-3.2 46.05-4.05 45.9-4.8L45.9-4.8 46.85-4.95Q47.05-4.2 47.05-3.3L47.05-3.3Q47.05-1.5 45.97-0.45 44.9 0.6 43.15 0.6 41.4 0.6 40.3-0.83 39.2-2.25 39.2-5.1L39.2-5.1 39.2-6Q38.35-2.6 36.5-1 34.65 0.6 32.22 0.6 29.8 0.6 28.32-0.93 26.85-2.45 26.85-4.98 26.85-7.5 29.2-9.47 31.55-11.45 35.95-11.45L35.95-11.45Q36.9-11.45 39.15-11.2L39.15-11.2ZM33.35-1.3L33.35-1.3Q35.45-1.3 37.12-3.68 38.8-6.05 39.1-10.35L39.1-10.35Q38.6-10.4 37.7-10.4L37.7-10.4Q33.7-10.4 31.97-8.72 30.25-7.05 30.25-4.85L30.25-4.85Q30.25-3.4 31.1-2.35 31.95-1.3 33.35-1.3ZM70.4-14.6L70.4-14.6 70.4-1.5Q70.4-0.9 71.09-0.9L71.09-0.9 73.45-0.9 73.45 0 64.45 0 64.45-0.9 66.09-0.9Q66.8-0.9 66.8-1.5L66.8-1.5 66.8-15.25Q66.8-17.8 65.67-19.03 64.55-20.25 62.7-20.25L62.7-20.25Q60.09-20.25 58.4-17.18 56.7-14.1 56.7-8.35L56.7-8.35 56.7-1.6Q56.7-0.9 57.4-0.9L57.4-0.9 59.05-0.9 59.05 0 50.05 0 50.05-0.9 52.4-0.9Q53.09-0.9 53.09-1.5L53.09-1.5 53.09-20Q53.09-20.7 52.4-20.7L52.4-20.7 50.05-20.7 50.05-21.6 52.5-21.6Q55.5-21.6 56.7-21.9L56.7-21.9 56.7-15.1Q58.4-22.2 64.2-22.2L64.2-22.2Q66.8-22.2 68.59-20.33 70.4-18.45 70.4-14.6ZM79.74-1.6L79.74-1.6 79.74-30.8Q79.74-31.5 79.04-31.5L79.04-31.5 76.69-31.5 76.69-32.4 79.14-32.4Q82.14-32.4 83.34-32.7L83.34-32.7 83.34-1.6Q83.34-0.9 84.04-0.9L84.04-0.9 86.39-0.9 86.39 0 76.69 0 76.69-0.9 79.04-0.9Q79.74-0.9 79.74-1.6ZM102.39-20.7L102.39-21.6 108.74-21.6 108.74-20.7 106.89-20.7Q106.44-20.7 106.19-20L106.19-20 97.54 3.15Q97.39 3.6 97.04 4.5L97.04 4.5 96.49 5.85Q96.34 6.3 96.04 7.08 95.74 7.85 95.54 8.28 95.34 8.7 95.04 9.3L95.04 9.3Q94.69 10.05 94.04 10.73 93.39 11.4 92.69 11.4 91.99 11.4 91.22 10.53 90.44 9.65 90.29 8.65L90.29 8.65Q94.84 6.7 96.49 2.15L96.49 2.15 97.34-0.15 89.94-20Q89.69-20.7 89.24-20.7L89.24-20.7 87.39-20.7 87.39-21.6 95.89-21.6 95.89-20.7 93.39-20.7 99.14-4.9 104.94-20.7 102.39-20.7ZM127.54-30.6L127.54-31.5 134.34-31.5 134.34-30.6 132.49-30.6Q131.79-30.6 131.54-29.9L131.54-29.9 123.89-11.45 123.89-1.6Q123.89-0.9 124.59-0.9L124.59-0.9 128.19-0.9 128.19 0 115.49 0 115.49-0.9 119.09-0.9Q119.79-0.9 119.79-1.6L119.79-1.6 119.79-11.5 111.29-29.9Q110.94-30.6 110.34-30.6L110.34-30.6 108.49-30.6 108.49-31.5 118.04-31.5 118.04-30.6 115.54-30.6 123.19-14 130.04-30.6 127.54-30.6ZM134.64-2.45Q131.84-5.5 131.84-10.8 131.84-16.1 134.64-19.15 137.44-22.2 141.94-22.2 146.44-22.2 149.26-19.15 152.09-16.1 152.09-10.8 152.09-5.5 149.26-2.45 146.44 0.6 141.94 0.6 137.44 0.6 134.64-2.45ZM137.44-18.32Q135.64-15.55 135.64-10.8 135.64-6.05 137.44-3.28 139.24-0.5 141.94-0.5 144.64-0.5 146.46-3.28 148.28-6.05 148.28-10.8 148.28-15.55 146.46-18.32 144.64-21.1 141.94-21.1 139.24-21.1 137.44-18.32ZM168.83-22.2Q170.78-22.2 172.01-20.55 173.23-18.9 173.23-16.4 173.23-13.9 171.18-13.9L171.18-13.9Q169.98-13.9 169.23-14.65L169.23-14.65Q169.88-16.1 169.88-17.6L169.88-17.6Q169.88-20.25 167.68-20.25L167.68-20.25Q165.83-20.25 164.41-17.18 162.98-14.1 162.98-8.25L162.98-8.25 162.98-1.6Q162.98-0.9 163.68-0.9L163.68-0.9 167.03-0.9 167.03 0 156.33 0 156.33-0.9 158.68-0.9Q159.38-0.9 159.38-1.6L159.38-1.6 159.38-20Q159.38-20.7 158.68-20.7L158.68-20.7 156.33-20.7 156.33-21.6 158.78-21.6Q161.78-21.6 162.98-21.9L162.98-21.9 162.98-15.5Q163.78-18.95 165.33-20.58 166.88-22.2 168.83-22.2ZM185.58-22.2L185.58-22.2Q189.03-22.2 191.03-19.9 193.03-17.6 193.03-13.15L193.03-13.15Q193.03-12.25 192.93-11.15L192.93-11.15 179.28-11.15 179.28-10.8Q179.28-6.05 181.01-3.33 182.73-0.6 185.46-0.6 188.18-0.6 189.93-2 191.68-3.4 192.33-6L192.33-6 193.28-5.8Q192.68-2.75 190.53-1.07 188.38 0.6 185.58 0.6L185.58 0.6Q181.23 0.6 178.36-2.45 175.48-5.5 175.48-10.78 175.48-16.05 178.38-19.13 181.28-22.2 185.58-22.2ZM189.58-14.85L189.58-14.85Q189.58-21 184.98-21L184.98-21Q182.68-21 181.06-18.5 179.43-16 179.33-12.15L179.33-12.15 189.38-12.15Q189.58-13.85 189.58-14.85ZM200.08-1.6L200.08-1.6 200.08-30.8Q200.08-31.5 199.38-31.5L199.38-31.5 197.03-31.5 197.03-32.4 199.48-32.4Q202.48-32.4 203.68-32.7L203.68-32.7 203.68-1.6Q203.68-0.9 204.38-0.9L204.38-0.9 206.73-0.9 206.73 0 197.03 0 197.03-0.9 199.38-0.9Q200.08-0.9 200.08-1.6ZM229.63-21L229.63-21 229.23-21.05Q228.78-24.15 226.98-24.15L226.98-24.15Q226.08-24.15 225.33-23.2 224.58-22.25 224.43-20.7L224.43-20.7Q227.13-18.65 227.13-15 227.13-11.35 225-9.38 222.88-7.4 219.48-7.4L219.48-7.4 215.03-7.4Q213.78-7.4 213.1-6.7 212.43-6 212.43-5.05 212.43-4.1 213.1-3.4 213.78-2.7 215.03-2.7L215.03-2.7 223.38-2.7Q226.38-2.7 227.9-1.33 229.43 0.05 229.43 2.15L229.43 2.15Q229.43 5.5 226.28 8.45 223.13 11.4 218.43 11.4L218.43 11.4Q214.83 11.4 212.58 9.7 210.33 8 210.33 5.4 210.33 2.8 213.08 0.4L213.08 0.4Q211.78 0.05 211-1.07 210.23-2.2 210.23-3.85 210.23-5.5 211.43-6.83 212.63-8.15 215.03-8.15L215.03-8.15 215.78-8.15Q211.88-9.95 211.88-14.8L211.88-14.8Q211.88-18.25 213.98-20.23 216.08-22.2 219.48-22.2L219.48-22.2Q221.73-22.2 223.43-21.3L223.43-21.3Q223.78-23.3 224.85-24.6 225.93-25.9 227.7-25.9 229.48-25.9 230.65-24.95 231.83-24 231.83-22.9L231.83-22.9Q231.83-21 229.63-21ZM223.38 0.6L223.38 0.6 214.63 0.6Q213.03 2.45 213.03 4.8 213.03 7.15 214.43 8.68 215.83 10.2 218.95 10.2 222.08 10.2 224.63 8 227.18 5.8 227.18 3.45L227.18 3.45Q227.18 2.2 226.23 1.4 225.28 0.6 223.38 0.6ZM216.58-19.4Q215.43-17.7 215.43-14.8 215.43-11.9 216.58-10.2 217.73-8.5 219.48-8.5 221.23-8.5 222.4-10.2 223.58-11.9 223.58-14.8 223.58-17.7 222.4-19.4 221.23-21.1 219.48-21.1 217.73-21.1 216.58-19.4ZM243.02-22.2L243.02-22.2Q246.47-22.2 248.47-19.9 250.47-17.6 250.47-13.15L250.47-13.15Q250.47-12.25 250.37-11.15L250.37-11.15 236.72-11.15 236.72-10.8Q236.72-6.05 238.45-3.33 240.17-0.6 242.9-0.6 245.62-0.6 247.37-2 249.12-3.4 249.77-6L249.77-6 250.72-5.8Q250.12-2.75 247.97-1.07 245.82 0.6 243.02 0.6L243.02 0.6Q238.67 0.6 235.8-2.45 232.92-5.5 232.92-10.78 232.92-16.05 235.82-19.13 238.72-22.2 243.02-22.2ZM247.02-14.85L247.02-14.85Q247.02-21 242.42-21L242.42-21Q240.12-21 238.5-18.5 236.87-16 236.77-12.15L236.77-12.15 246.82-12.15Q247.02-13.85 247.02-14.85Z" opacity="1" transform="matrix(1,0,0,1,0,0)" fill="black" class="wordmark-text-0" id="SvgjsPath2126"></path></svg></g></svg></g></svg></g></svg></g><g transform="matrix(1,0,0,1,100.03586361323458,0)"><svg viewBox="0 0 195.44827277353082 99.33320559181645" height="99.33320559181645" width="195.44827277353082"><g><svg xmlns="http://www.w3.org/2000/svg" xmlns:xlink="http://www.w3.org/1999/xlink" version="1.1" x="0" y="0" viewBox="4.4 26.799999999999997 91.1 46.30000000000001" enable-background="new 0 0 100 100" xml:space="preserve" height="99.33320559181645" width="195.44827277353082" class="icon-icon-0" data-fill-palette-color="accent" id="SvgjsSvg2125"></svg></g></svg></g><g></g></svg></g></svg></g></svg></g></svg></g><defs><mask></mask></defs><mask><g id="SvgjsG2124"><svg viewBox="0 0 395.52 247.2" height="247.2" width="395.52"><g><svg></svg></g><g><svg viewBox="0 0 395.52 247.2" height="247.2" width="395.52"><g><path d="M55.039 247.2l26.403-45.732 1.676 0-25.52 44.202h280.324l-25.52-44.202 1.676 0 26.403 45.732zM197.76 0l26.403 45.732-1.675 0-24.728-42.83-24.728 42.83-1.675 0z" fill="black" fill-rule="nonzero" stroke="none" stroke-width="1" stroke-linecap="butt" stroke-linejoin="miter" stroke-miterlimit="10" stroke-dasharray="" stroke-dashoffset="0" font-family="none" font-weight="none" font-size="none" text-anchor="none" style="mix-blend-mode: normal"></path></g><g transform="matrix(1,0,0,1,75.97060984947996,67.97999999999999)"><svg viewBox="0 0 243.57878030104007 111.24" height="111.24" width="243.57878030104007"><g><svg viewBox="0 0 243.57878030104007 111.24" height="111.24" width="243.57878030104007"><g><svg viewBox="0 0 395.52 180.63003988123728" height="111.24" width="243.57878030104007"><g transform="matrix(1,0,0,1,0,108.75362483650756)"><svg viewBox="0 0 395.52 71.87641504472971" height="71.87641504472971" width="395.52"><g id="SvgjsG2123"><svg viewBox="0 0 395.52 71.87641504472971" height="71.87641504472971" width="395.52" id="SvgjsSvg2122"><g><svg viewBox="0 0 395.52 71.87641504472971" height="71.87641504472971" width="395.52"><g transform="matrix(1,0,0,1,0,0)"><svg width="395.52" viewBox="-0.5 -35.7 271.15643114142534 50.1" height="71.87641504472971" data-palette-color="#6ee0f5"><g transform="matrix(1,0,0,1,0,0)"><g><svg width="9.921131141425295" viewBox="-1.22 -39.36 80.21 42.36" height="5.180264278972649" data-palette-color="#6ee0f5" id="SvgjsSvg2121" x="255.68056557071264" y="-28.27483213948633"><path d="M12.91-30.02L1.78-30.02 1.78-36.36 31.64-36.36 31.64-30.02 20.51-30.02 20.51 0 12.91 0 12.91-30.02ZM36.57 0L36.57-36.36 46.06-36.36 56.07-11.93 56.5-11.93 66.51-36.36 75.99-36.36 75.99 0 68.53 0 68.53-23.67 68.23-23.67 58.82-0.18 53.74-0.18 44.33-23.76 44.03-23.76 44.03 0 36.57 0Z" opacity="1" transform="matrix(1,0,0,1,0,0)" fill="black" class="undefined-123" id="SvgjsPath2120"></path></svg></g></g><path d="M253.626-25.685C253.626-29.559 256.767-32.7 260.641-32.7 264.516-32.7 267.656-29.559 267.656-25.685 267.656-21.81 264.516-18.669 260.641-18.669 256.767-18.669 253.626-21.81 253.626-25.685ZM260.641-19.069C264.295-19.069 267.256-22.031 267.256-25.685 267.256-29.338 264.295-32.3 260.641-32.3 256.988-32.3 254.026-29.338 254.026-25.685 254.026-22.031 256.988-19.069 260.641-19.069Z" fill="black" id="SvgjsPath2119"></path><path d="M12.4 0.6L12.4 0.6Q9.1 0.6 5.8-1.2L5.8-1.2Q4.7-1.75 4.3-1.75L4.3-1.75Q3.55-1.75 3.5-0.7L3.5-0.7 3.45 0 2.5 0 2.5-8.35 3.4-8.35Q3.85-4.5 6.28-2.68 8.7-0.85 12.03-0.85 15.35-0.85 17.07-2.65 18.8-4.45 18.8-6.9L18.8-6.9Q18.8-10.8 14.3-12.8L14.3-12.8 8.35-15.45Q5.65-16.65 4.3-18.73 2.95-20.8 2.95-23.2L2.95-23.2Q2.95-26.85 5.4-29.48 7.85-32.1 12.45-32.1L12.45-32.1Q15.15-32.1 18-30.3L18-30.3Q18.95-29.75 19.3-29.75L19.3-29.75Q19.95-29.75 20-30.8L20-30.8 20.05-31.8 21-31.8 21-23.15 20.1-23.15Q19.7-27 17.63-28.83 15.55-30.65 12.58-30.65 9.6-30.65 7.98-29.03 6.35-27.4 6.35-25.33 6.35-23.25 7.48-21.6 8.6-19.95 10.8-19L10.8-19 16.8-16.35Q19.8-15 21.33-12.83 22.85-10.65 22.85-8.15L22.85-8.15Q22.85-4.6 20-2 17.15 0.6 12.4 0.6ZM39.15-11.2L39.15-11.65 39.2-13.4 39.2-15.15Q39.2-21 35.4-21L35.4-21Q33.75-21 32.82-19.88 31.9-18.75 31.9-17.25 31.9-15.75 32.3-14.65L32.3-14.65Q31.45-13.9 29.95-13.9 28.45-13.9 28.45-16.35 28.45-18.8 30.37-20.5 32.3-22.2 35.85-22.2L35.85-22.2Q42.8-22.2 42.8-14L42.8-14 42.8-3.75Q42.8-1.05 44.3-1.05L44.3-1.05Q45-1.05 45.52-1.7 46.05-2.35 46.05-3.2 46.05-4.05 45.9-4.8L45.9-4.8 46.85-4.95Q47.05-4.2 47.05-3.3L47.05-3.3Q47.05-1.5 45.97-0.45 44.9 0.6 43.15 0.6 41.4 0.6 40.3-0.83 39.2-2.25 39.2-5.1L39.2-5.1 39.2-6Q38.35-2.6 36.5-1 34.65 0.6 32.22 0.6 29.8 0.6 28.32-0.93 26.85-2.45 26.85-4.98 26.85-7.5 29.2-9.47 31.55-11.45 35.95-11.45L35.95-11.45Q36.9-11.45 39.15-11.2L39.15-11.2ZM33.35-1.3L33.35-1.3Q35.45-1.3 37.12-3.68 38.8-6.05 39.1-10.35L39.1-10.35Q38.6-10.4 37.7-10.4L37.7-10.4Q33.7-10.4 31.97-8.72 30.25-7.05 30.25-4.85L30.25-4.85Q30.25-3.4 31.1-2.35 31.95-1.3 33.35-1.3ZM70.4-14.6L70.4-14.6 70.4-1.5Q70.4-0.9 71.09-0.9L71.09-0.9 73.45-0.9 73.45 0 64.45 0 64.45-0.9 66.09-0.9Q66.8-0.9 66.8-1.5L66.8-1.5 66.8-15.25Q66.8-17.8 65.67-19.03 64.55-20.25 62.7-20.25L62.7-20.25Q60.09-20.25 58.4-17.18 56.7-14.1 56.7-8.35L56.7-8.35 56.7-1.6Q56.7-0.9 57.4-0.9L57.4-0.9 59.05-0.9 59.05 0 50.05 0 50.05-0.9 52.4-0.9Q53.09-0.9 53.09-1.5L53.09-1.5 53.09-20Q53.09-20.7 52.4-20.7L52.4-20.7 50.05-20.7 50.05-21.6 52.5-21.6Q55.5-21.6 56.7-21.9L56.7-21.9 56.7-15.1Q58.4-22.2 64.2-22.2L64.2-22.2Q66.8-22.2 68.59-20.33 70.4-18.45 70.4-14.6ZM79.74-1.6L79.74-1.6 79.74-30.8Q79.74-31.5 79.04-31.5L79.04-31.5 76.69-31.5 76.69-32.4 79.14-32.4Q82.14-32.4 83.34-32.7L83.34-32.7 83.34-1.6Q83.34-0.9 84.04-0.9L84.04-0.9 86.39-0.9 86.39 0 76.69 0 76.69-0.9 79.04-0.9Q79.74-0.9 79.74-1.6ZM102.39-20.7L102.39-21.6 108.74-21.6 108.74-20.7 106.89-20.7Q106.44-20.7 106.19-20L106.19-20 97.54 3.15Q97.39 3.6 97.04 4.5L97.04 4.5 96.49 5.85Q96.34 6.3 96.04 7.08 95.74 7.85 95.54 8.28 95.34 8.7 95.04 9.3L95.04 9.3Q94.69 10.05 94.04 10.73 93.39 11.4 92.69 11.4 91.99 11.4 91.22 10.53 90.44 9.65 90.29 8.65L90.29 8.65Q94.84 6.7 96.49 2.15L96.49 2.15 97.34-0.15 89.94-20Q89.69-20.7 89.24-20.7L89.24-20.7 87.39-20.7 87.39-21.6 95.89-21.6 95.89-20.7 93.39-20.7 99.14-4.9 104.94-20.7 102.39-20.7ZM127.54-30.6L127.54-31.5 134.34-31.5 134.34-30.6 132.49-30.6Q131.79-30.6 131.54-29.9L131.54-29.9 123.89-11.45 123.89-1.6Q123.89-0.9 124.59-0.9L124.59-0.9 128.19-0.9 128.19 0 115.49 0 115.49-0.9 119.09-0.9Q119.79-0.9 119.79-1.6L119.79-1.6 119.79-11.5 111.29-29.9Q110.94-30.6 110.34-30.6L110.34-30.6 108.49-30.6 108.49-31.5 118.04-31.5 118.04-30.6 115.54-30.6 123.19-14 130.04-30.6 127.54-30.6ZM134.64-2.45Q131.84-5.5 131.84-10.8 131.84-16.1 134.64-19.15 137.44-22.2 141.94-22.2 146.44-22.2 149.26-19.15 152.09-16.1 152.09-10.8 152.09-5.5 149.26-2.45 146.44 0.6 141.94 0.6 137.44 0.6 134.64-2.45ZM137.44-18.32Q135.64-15.55 135.64-10.8 135.64-6.05 137.44-3.28 139.24-0.5 141.94-0.5 144.64-0.5 146.46-3.28 148.28-6.05 148.28-10.8 148.28-15.55 146.46-18.32 144.64-21.1 141.94-21.1 139.24-21.1 137.44-18.32ZM168.83-22.2Q170.78-22.2 172.01-20.55 173.23-18.9 173.23-16.4 173.23-13.9 171.18-13.9L171.18-13.9Q169.98-13.9 169.23-14.65L169.23-14.65Q169.88-16.1 169.88-17.6L169.88-17.6Q169.88-20.25 167.68-20.25L167.68-20.25Q165.83-20.25 164.41-17.18 162.98-14.1 162.98-8.25L162.98-8.25 162.98-1.6Q162.98-0.9 163.68-0.9L163.68-0.9 167.03-0.9 167.03 0 156.33 0 156.33-0.9 158.68-0.9Q159.38-0.9 159.38-1.6L159.38-1.6 159.38-20Q159.38-20.7 158.68-20.7L158.68-20.7 156.33-20.7 156.33-21.6 158.78-21.6Q161.78-21.6 162.98-21.9L162.98-21.9 162.98-15.5Q163.78-18.95 165.33-20.58 166.88-22.2 168.83-22.2ZM185.58-22.2L185.58-22.2Q189.03-22.2 191.03-19.9 193.03-17.6 193.03-13.15L193.03-13.15Q193.03-12.25 192.93-11.15L192.93-11.15 179.28-11.15 179.28-10.8Q179.28-6.05 181.01-3.33 182.73-0.6 185.46-0.6 188.18-0.6 189.93-2 191.68-3.4 192.33-6L192.33-6 193.28-5.8Q192.68-2.75 190.53-1.07 188.38 0.6 185.58 0.6L185.58 0.6Q181.23 0.6 178.36-2.45 175.48-5.5 175.48-10.78 175.48-16.05 178.38-19.13 181.28-22.2 185.58-22.2ZM189.58-14.85L189.58-14.85Q189.58-21 184.98-21L184.98-21Q182.68-21 181.06-18.5 179.43-16 179.33-12.15L179.33-12.15 189.38-12.15Q189.58-13.85 189.58-14.85ZM200.08-1.6L200.08-1.6 200.08-30.8Q200.08-31.5 199.38-31.5L199.38-31.5 197.03-31.5 197.03-32.4 199.48-32.4Q202.48-32.4 203.68-32.7L203.68-32.7 203.68-1.6Q203.68-0.9 204.38-0.9L204.38-0.9 206.73-0.9 206.73 0 197.03 0 197.03-0.9 199.38-0.9Q200.08-0.9 200.08-1.6ZM229.63-21L229.63-21 229.23-21.05Q228.78-24.15 226.98-24.15L226.98-24.15Q226.08-24.15 225.33-23.2 224.58-22.25 224.43-20.7L224.43-20.7Q227.13-18.65 227.13-15 227.13-11.35 225-9.38 222.88-7.4 219.48-7.4L219.48-7.4 215.03-7.4Q213.78-7.4 213.1-6.7 212.43-6 212.43-5.05 212.43-4.1 213.1-3.4 213.78-2.7 215.03-2.7L215.03-2.7 223.38-2.7Q226.38-2.7 227.9-1.33 229.43 0.05 229.43 2.15L229.43 2.15Q229.43 5.5 226.28 8.45 223.13 11.4 218.43 11.4L218.43 11.4Q214.83 11.4 212.58 9.7 210.33 8 210.33 5.4 210.33 2.8 213.08 0.4L213.08 0.4Q211.78 0.05 211-1.07 210.23-2.2 210.23-3.85 210.23-5.5 211.43-6.83 212.63-8.15 215.03-8.15L215.03-8.15 215.78-8.15Q211.88-9.95 211.88-14.8L211.88-14.8Q211.88-18.25 213.98-20.23 216.08-22.2 219.48-22.2L219.48-22.2Q221.73-22.2 223.43-21.3L223.43-21.3Q223.78-23.3 224.85-24.6 225.93-25.9 227.7-25.9 229.48-25.9 230.65-24.95 231.83-24 231.83-22.9L231.83-22.9Q231.83-21 229.63-21ZM223.38 0.6L223.38 0.6 214.63 0.6Q213.03 2.45 213.03 4.8 213.03 7.15 214.43 8.68 215.83 10.2 218.95 10.2 222.08 10.2 224.63 8 227.18 5.8 227.18 3.45L227.18 3.45Q227.18 2.2 226.23 1.4 225.28 0.6 223.38 0.6ZM216.58-19.4Q215.43-17.7 215.43-14.8 215.43-11.9 216.58-10.2 217.73-8.5 219.48-8.5 221.23-8.5 222.4-10.2 223.58-11.9 223.58-14.8 223.58-17.7 222.4-19.4 221.23-21.1 219.48-21.1 217.73-21.1 216.58-19.4ZM243.02-22.2L243.02-22.2Q246.47-22.2 248.47-19.9 250.47-17.6 250.47-13.15L250.47-13.15Q250.47-12.25 250.37-11.15L250.37-11.15 236.72-11.15 236.72-10.8Q236.72-6.05 238.45-3.33 240.17-0.6 242.9-0.6 245.62-0.6 247.37-2 249.12-3.4 249.77-6L249.77-6 250.72-5.8Q250.12-2.75 247.97-1.07 245.82 0.6 243.02 0.6L243.02 0.6Q238.67 0.6 235.8-2.45 232.92-5.5 232.92-10.78 232.92-16.05 235.82-19.13 238.72-22.2 243.02-22.2ZM247.02-14.85L247.02-14.85Q247.02-21 242.42-21L242.42-21Q240.12-21 238.5-18.5 236.87-16 236.77-12.15L236.77-12.15 246.82-12.15Q247.02-13.85 247.02-14.85Z" opacity="1" transform="matrix(1,0,0,1,0,0)" fill="black" class="wordmark-text-0" id="SvgjsPath2118"></path></svg></g></svg></g></svg></g></svg></g><g transform="matrix(1,0,0,1,100.03586361323458,0)"><svg viewBox="0 0 195.44827277353082 99.33320559181645" height="99.33320559181645" width="195.44827277353082"><g><svg xmlns="http://www.w3.org/2000/svg" xmlns:xlink="http://www.w3.org/1999/xlink" version="1.1" x="0" y="0" viewBox="4.4 26.799999999999997 91.1 46.30000000000001" enable-background="new 0 0 100 100" xml:space="preserve" height="99.33320559181645" width="195.44827277353082" class="icon-icon-0" data-fill-palette-color="accent" id="SvgjsSvg2117"><g fill="black"><path fill="black" d="M38.3 29.9L26.6 50l11.6 20.1h23.2L73.1 50 61.5 29.9H38.3zM58.6 65.1H41.2L32.5 50l8.7-15.1h17.4L67.3 50 58.6 65.1z"></path><path fill="black" d="M42.1 36.4L34.2 50l7.8 13.6h15.6L65.5 50l-7.8-13.6H42.1zM54.3 57.7h-8.9L41 50l4.4-7.7h8.9l4.4 7.7L54.3 57.7z"></path><path d="M41.2 34.9L32.5 50l8.7 15.1h17.4L67.3 50l-8.7-15.1H41.2zM57.7 63.6H42.1L34.2 50l7.8-13.6h15.6L65.5 50 57.7 63.6z" fill="black"></path><polygon points="45.5,42.3 41,50 45.5,57.7 54.3,57.7 58.7,50 54.3,42.3  " fill="black"></polygon><path d="M95.5 40.3l-9.1-5.2v4.5H70.6l-3.8-6.6h7c0.4 1.8 1.9 3.1 3.8 3.1 2.1 0 3.9-1.7 3.9-3.9s-1.7-3.9-3.9-3.9c-1.9 0-3.4 1.3-3.8 3.1h-7.8l-2.6-4.6H36.5L23.1 50l5.2 9H13.5v-4.5l-9.1 5.2 9.1 5.2v-4.5h15.7l3.8 6.6h-6.8c-0.4-1.8-1.9-3.1-3.8-3.1-2.1 0-3.9 1.7-3.9 3.9 0 2.1 1.7 3.9 3.9 3.9 1.9 0 3.4-1.3 3.8-3.1h7.7l2.6 4.5h26.7L76.6 50l-5.2-8.9h15v4.5L95.5 40.3zM61.5 70.1H38.3L26.6 50l11.6-20.1h23.2L73.1 50 61.5 70.1z" fill="black"></path></g></svg></g></svg></g><g></g></svg></g></svg></g></svg></g></svg></g><defs><mask></mask></defs></svg><rect width="395.52" height="247.2" fill="black" stroke="none" visibility="hidden"></rect></g></mask></svg><rect width="395.52" height="247.2" fill="black" stroke="none" visibility="hidden"></rect></g></mask><linearGradient x1="0" x2="1" y1="0.578" y2="0.595" id="0a006a59-47c2-4a24-9b32-dbaf42d82005"><stop stop-color="#6ee2f5" offset="0"></stop><stop stop-color="#6454f0" offset="1"></stop></linearGradient></svg><rect width="395.52" height="247.2" fill="none" stroke="none" visibility="hidden"></rect></g></svg></g></svg>